<?xml version="1.0" encoding="UTF-8"?>
<!DOCTYPE svg PUBLIC "-//W3C//DTD SVG 1.1//EN" "http://www.w3.org/Graphics/SVG/1.1/DTD/svg11.dtd">
<!-- Creator: CorelDRAW X7 -->
<svg xmlns="http://www.w3.org/2000/svg" xml:space="preserve" width="279.4mm" height="215.9mm" version="1.1" style="shape-rendering:geometricPrecision; text-rendering:geometricPrecision; image-rendering:optimizeQuality; fill-rule:evenodd; clip-rule:evenodd"
viewBox="0 0 27940 21590"
 xmlns:xlink="http://www.w3.org/1999/xlink">
 <defs>
  <style type="text/css">
   <![CDATA[
    .str2 {stroke:#373435;stroke-width:7.62}
    .str0 {stroke:#FEFEFE;stroke-width:105.83;stroke-linejoin:round}
    .str1 {stroke:#FEFEFE;stroke-width:105.83;stroke-linecap:round;stroke-linejoin:round}
    .str3 {stroke:#FEFEFE;stroke-width:52.92;stroke-linecap:round;stroke-linejoin:round}
    .fil3 {fill:none}
    .fil4 {fill:none;fill-rule:nonzero}
    .fil2 {fill:#373435}
    .fil0 {fill:#373435}
    .fil1 {fill:#ED3237}
    .fil5 {fill:#373435;fill-rule:nonzero}
   ]]>
  </style>
   <clipPath id="id0">
    <path d="M14164 13548l4175 -1859 -15 -2681 -4160 -1213 -4101 1153 -15 2741 4116 1859z"/>
   </clipPath>
 </defs>
 <g id="Capa_x0020_1">
  <metadata id="CorelCorpID_0Corel-Layer"/>
  <path class="fil0" d="M16665 13439c-27,-4 -54,-8 -81,-12 -1,2 -21,10 -30,12 -4,-41 -10,-23 -10,-60 0,-51 20,-100 30,-142 7,0 13,0 20,0 10,39 23,77 71,81 0,-10 0,-20 0,-30 10,13 20,27 30,40 15,-16 30,-31 45,-47 19,-1 37,-2 56,-3 27,0 28,5 50,10 0,10 0,20 0,30 10,0 20,0 30,0 0,-7 0,-13 0,-20 44,6 88,12 132,19 3,20 6,41 10,62 16,10 33,20 50,30 0,17 0,33 0,50 16,8 32,17 48,25 1,8 2,17 2,26 0,24 43,48 61,60 20,-7 40,-15 60,-22 8,13 16,27 24,40 12,-10 24,-20 36,-30 -3,-3 -6,-6 -9,-8 20,0 40,0 60,0 0,-100 -24,-98 -60,-151 13,0 27,0 40,0 24,16 45,50 71,50 46,0 71,-4 80,-40 40,4 81,8 121,12 10,7 19,13 29,19 1,-3 2,-7 2,-10 40,3 80,6 120,10 -11,42 -20,17 -20,49 0,33 43,71 81,71 19,0 7,-20 40,-20 20,0 40,0 61,0 -4,20 -8,40 -12,60 14,0 28,0 42,0 -1,-20 -1,-40 -1,-60 110,-9 39,-58 209,-26 53,9 188,13 205,56 74,-5 148,-10 222,-15 -19,-74 -205,-86 -282,-106 -63,-16 -99,-12 -170,-22 -39,-6 -135,-38 -153,-38 -10,0 -20,0 -30,0 0,-17 0,-34 0,-51 -12,12 -24,24 -37,36 -118,5 -73,-17 -104,-76 -59,0 -81,-3 -101,-40 13,-8 25,-16 38,-24 -10,-17 -20,-35 -30,-53 -3,2 -5,4 -8,6 0,-10 0,-20 0,-30 17,0 34,0 50,0 0,-10 0,-20 0,-30 -1,-37 -2,-74 -3,-111 1,-14 2,-27 3,-41 -7,-2 -14,-3 -21,-5 -11,11 -22,21 -34,32 -2,-9 -4,-18 -7,-26 -48,0 -47,0 -49,50 21,1 41,2 61,3 0,5 0,11 0,17 -61,-11 -122,-23 -183,-34 14,-22 28,-44 43,-66 -28,-14 7,-11 -31,-11 -10,0 -21,0 -31,0 0,7 0,13 0,20 -10,0 -20,0 -30,0 -27,0 -154,-151 -101,-151 12,0 119,44 131,50 23,-5 24,-10 51,-10 2,0 67,53 70,61 14,0 27,0 41,0 11,0 46,28 70,40 13,-7 34,-20 51,-20 2,0 18,7 30,10 5,63 30,28 30,71 0,10 0,20 0,30 7,0 14,0 20,0 3,-14 6,-27 9,-41 8,9 17,19 25,28 6,1 11,2 17,3 0,-7 0,-14 0,-20 40,9 50,30 90,30 17,0 34,0 51,0 0,-17 0,-34 0,-51 23,4 47,8 70,11 0,-4 0,-8 0,-12 10,0 21,0 31,0 0,-10 0,-19 0,-29 29,8 59,16 89,24 1,-8 1,-16 1,-24 -61,-14 -119,-23 -121,-101 24,3 48,6 71,9 0,11 0,21 0,32 61,1 115,40 141,40 21,0 19,-21 20,-40 -17,-4 -33,-7 -50,-11 0,-13 0,-26 0,-40 30,-4 60,-8 90,-13 -2,4 -4,7 -7,11 14,13 28,26 42,39 2,14 4,29 6,44 7,0 13,0 20,0 0,-27 0,-54 0,-81 43,8 87,16 130,24 1,5 1,11 1,17 -25,11 -49,22 -74,34 -15,1 -31,2 -47,3 7,32 13,64 20,96 -5,16 -10,31 -14,46 18,1 36,1 55,2 0,-10 0,-20 0,-30 6,0 13,0 20,0 8,31 19,40 60,40 10,0 20,0 30,0 60,0 130,-87 132,-141 34,8 145,64 188,84 49,23 153,39 154,108 10,0 20,0 31,0 0,-7 0,-14 0,-21 73,17 139,61 231,61 34,0 68,0 101,0 27,0 28,-5 51,-10 -9,-107 -238,-116 -339,-146 -56,-16 -125,-41 -179,-63 -98,-39 -97,-18 -138,-104 -11,9 -23,17 -35,25 -15,-5 -29,-11 -44,-17 -1,-6 -1,-12 -1,-18 48,-13 33,-40 70,-40 22,0 14,3 41,10 27,-59 55,-117 82,-176 39,119 385,146 543,146 0,-10 0,-20 0,-31 0,-97 -188,-141 -293,-141 -33,0 -67,0 -101,0 -43,6 -87,13 -131,19 15,-19 29,-38 44,-57 -45,-80 -95,-138 -189,-169 -69,-23 -340,-310 -393,-322 844,-204 493,-526 217,-677l-14 -2573 -3041 -912 -23 -62 -5 -26c66,-32 232,-136 316,-185 116,-68 166,-158 202,-277l-73 -62 179 -13 133 -28c138,-29 374,-139 346,-268l-8 -40c-208,44 -658,177 -676,344l-158 -209c-34,16 -23,19 -51,25 -49,10 -36,-30 -104,-34l-4 -23 54 -36 53 23c30,-124 35,-96 153,-176 66,-44 150,-96 219,-133 125,-68 424,-144 406,-288 -31,0 -33,-6 -69,1l-133 29c-123,26 -198,102 -290,145l-5 -27 -40 8c17,91 -115,141 -174,186 -51,39 -183,144 -225,164 -17,-71 -135,-167 -213,-150l-40 9c-54,11 -66,27 -69,70l-26 6 -9 -40 -72 18 31 56 2 132 63 -8 107 24 4 23 -166 67 -22 -106 -27 6 5 60 -45 62 12 12 -123 9 -11 -53 64 -28c-8,-25 -11,-53 -38,-47 -35,7 -95,74 -175,92l9 42 -91 32c-20,-103 55,-132 131,-168l-8 -31 -111 57 -9 -38 -40 8 -3 -16 -90 34 -14 -66 -67 14c-53,11 -60,41 -111,65l-6 -26 -21 7 -26 45 -22 -52 -27 6 9 40c11,56 -31,17 -21,102 -14,7 -33,21 -37,22 -22,4 -53,-8 -72,-13 -29,22 -67,70 -82,73l-53 11c-2,11 -74,100 -76,100 -36,8 -38,2 -70,1 -15,13 -144,100 -159,103 -71,16 55,-220 91,-228l40 -8 6 26 39 -8c51,-11 6,3 39,-23l-76 -76 233 -96 4 23 -79 21c16,65 15,65 79,52l2 -37 53 34 27 -14 -15 -52 -27 -147 -9 -40 -66 14 -9 -40 13 6 24 -80 -57 -19c16,-56 45,-65 122,-82 25,-87 -41,-103 117,-130l58 37 -14 -66 40 -9c24,-5 141,-75 192,-93 90,-34 139,-39 217,-77 97,-48 340,-116 344,-220l-298 43c-11,61 -188,104 -256,132 -215,89 -135,5 -283,24l-15 -80 -56 12 33 76 -80 17c-44,10 -34,-20 -59,-15 -50,11 -96,73 -87,116 9,43 14,7 41,60l-156 47 -6 -14 -33 34 -156 50c-23,-45 -57,-43 -118,-30 -34,7 -52,58 -79,86l-53 11c32,-81 65,-85 37,-216l-80 16 10 -12 -56 -30 -21 59 -85 -12c-20,20 -70,65 -63,97l4 34 -56 47 13 66 -57 54 4 85 -168 62 -6 -27 -40 8 9 40c-29,14 -28,20 -64,28l-75 11 -72 -49 -29 61 -8 -40c-63,19 -68,73 -71,127l-27 5c-24,-52 -65,-110 -79,-178 -11,-50 3,-27 -4,-82 13,0 42,5 44,7l103 -38 18 -46c-15,-15 -66,-46 -68,-55 -22,-103 81,-96 82,-202l-62 30c-13,-5 -39,-19 -46,-18 -22,5 -63,34 -58,54 7,36 14,36 27,64l-69 16 68 98 -27 52 -86 -61 9 -13c-107,14 -250,-192 -277,-317l-25 -120c-45,-211 94,-483 102,-634l-7 12 -103 -72 -54 11c-11,28 -21,29 -15,59 12,58 38,48 46,88 26,118 -112,352 -133,476 -15,88 1,166 20,245l-34 37 -7 -8c12,45 43,102 76,164 2,45 -3,92 -18,143l-205 79c-84,32 -259,-52 -305,-97 -93,-90 -117,-186 -199,-287l-44 97c50,2 136,85 144,123l2 235c74,28 229,-51 446,56 66,33 158,114 219,207 -26,48 -60,84 -96,87l8 8 -53 57 -27 -34 34 -81 -53 -1c5,-22 10,-23 10,-50 0,-16 -34,-30 -50,-30 -6,0 -22,14 -30,20l-50 -12c17,76 90,55 90,133 0,7 -32,37 -40,50l20 30 80 12c1,-1 21,-9 31,-12 3,42 10,23 10,61 0,51 -21,99 -30,141l-21 0c-10,-39 -22,-77 -70,-81l0 31 -30 -41 -46 47 -55 4c-27,0 -28,-5 -51,-10l0 -31 -30 0 0 21 -131 -19 -10 -62 -50 -31 0 -50 -49 -24 -2 -26c0,-25 -43,-49 -60,-61l-60 22 -24 -40 -36 31 9 8 -61 0c0,99 25,97 61,151l-41 0c-24,-16 -44,-51 -70,-51 -46,0 -71,5 -81,41l-120 -13 -30 -19 -2 11 -120 -10c11,-42 20,-17 20,-50 0,-32 -43,-70 -80,-70 -20,0 -7,20 -41,20l-60 0 11 -60 -41 -1 1 61c-110,9 -39,57 -209,26 -54,-10 -188,-14 -206,-57l-222 16c19,74 206,86 283,105 62,16 99,13 169,23 40,5 136,38 153,38l31 0 0 50 36 -36c119,-4 73,17 105,77 58,0 80,2 100,40l-38 23 30 54 8 -7 0 31 -50 0 0 30 3 111 -3 40 22 6 33 -33 7 27c48,-1 48,0 49,-50l-60 -3 -1 -17 183 33 -42 67c27,14 -8,11 31,11l30 0 0 -21 30 0c27,0 155,152 101,152 -11,0 -118,-44 -131,-51 -23,5 -23,10 -50,10 -2,0 -68,-53 -71,-60l-40 0c-11,0 -47,-29 -71,-41 -12,7 -33,21 -50,21 -3,0 -19,-7 -30,-10 -6,-63 -31,-29 -31,-71l0 -30 -20 0 -8 40 -26 -28 -16 -2 0 20c-41,-10 -51,-30 -91,-30l-50 0 0 50 -71 -11 0 13 -30 0 0 28 -90 -24 -1 24c61,15 119,24 121,101l-71 -9 1 -31c-61,-2 -115,-40 -142,-40 -20,0 -18,20 -20,40l51 10 0 40 -91 13 7 -10 -42 -39 -5 -44 -21 0 0 80 -130 -23 -1 -17 74 -34 47 -4 -19 -96 14 -45 -55 -3 0 31 -20 0c-9,-31 -20,-41 -61,-41l-30 0c-60,0 -130,88 -131,142 -34,-8 -146,-64 -188,-84 -50,-24 -153,-40 -155,-108l-30 0 0 20c-73,-17 -139,-60 -232,-60l-101 0c-27,0 -27,4 -50,10 9,106 237,115 338,145 56,17 125,41 179,63 98,40 97,19 138,104l35 -25 45 18 1 17c-49,13 -34,41 -71,41 -21,0 -13,-4 -40,-10l-83 175c-38,-118 -385,-145 -542,-145l0 30c0,98 187,141 292,141l101 0 131 -18 -43 56c44,81 94,138 189,170 68,22 204,72 257,84l0 21 -359 48 69 88 -5 2 -16 3070 3044 1415c-18,10 -34,20 -48,28 -116,68 -166,158 -202,277 25,21 49,42 74,63 -60,4 -120,8 -179,12 -44,10 -89,19 -133,28 -139,30 -374,140 -347,269 3,13 6,27 9,40 207,-44 658,-177 676,-345 52,70 105,140 158,209 34,-16 22,-18 50,-24 49,-11 37,30 105,33 1,8 2,16 3,24 -18,12 -35,24 -53,36 -18,-8 -36,-16 -54,-24 -30,125 -34,96 -153,176 -65,44 -149,96 -218,134 -125,67 -425,144 -407,287 32,1 34,7 70,-1 44,-9 88,-19 133,-28 122,-26 197,-102 289,-145 2,9 4,18 6,27 13,-3 26,-6 40,-9 -17,-91 115,-140 174,-186 50,-38 182,-143 225,-163 17,71 134,166 213,149 13,-2 26,-5 40,-8 54,-12 66,-27 68,-70 9,-2 18,-4 27,-6 3,13 5,27 8,40 24,-6 48,-12 72,-18 -10,-19 -21,-38 -31,-57 0,-44 -1,-88 -1,-132 -21,3 -42,6 -63,9 -36,-8 -72,-17 -108,-25 -1,-7 -2,-15 -3,-22 55,-23 110,-45 165,-68 8,36 15,71 23,107 9,-2 18,-4 27,-6 -2,-20 -4,-40 -5,-60 14,-21 29,-42 44,-63 -4,-4 -8,-8 -12,-12 41,-3 82,-6 123,-8 4,17 7,35 11,52 -21,10 -42,19 -63,28 7,26 10,54 38,48 34,-7 95,-74 175,-93 -3,-14 -6,-28 -9,-41l21 -8 70 33c-13,58 -72,82 -132,110 3,11 6,21 8,32 38,-19 75,-38 112,-57 3,12 5,25 8,38 13,-3 27,-6 40,-9 1,6 2,11 4,17 30,-12 60,-23 90,-35 4,22 9,45 14,67 22,-5 44,-10 66,-14 26,-6 41,-15 55,-26l123 57 164 -75 17 93c3,13 5,26 8,40 22,-5 45,-10 67,-14 3,13 5,26 8,40 -4,-2 -8,-5 -12,-7 -8,27 -17,54 -25,80 19,7 38,13 57,20 -16,55 -44,65 -122,81 -25,88 42,103 -117,131 -19,-13 -38,-25 -58,-38 5,22 10,45 14,67 -13,3 -26,6 -40,8 -23,5 -141,75 -191,94 -90,33 -140,38 -218,77 -96,47 -339,116 -343,219 99,-14 198,-28 297,-42 11,-62 188,-105 256,-133 216,-89 136,-5 284,-24 5,27 10,54 15,81 18,-4 37,-9 55,-13 -11,-25 -22,-50 -32,-76 26,-5 53,-11 80,-17 44,-9 33,21 59,15 49,-10 95,-72 86,-115 -9,-44 -13,-8 -40,-60 52,-16 104,-32 156,-48 2,5 3,10 5,14 11,-11 23,-22 34,-33 52,-17 104,-34 156,-51 22,45 56,44 118,31 33,-7 51,-58 79,-86 17,-4 35,-8 53,-12 -33,81 -66,85 -38,217 27,-6 54,-11 80,-17 -3,4 -6,8 -9,13 18,10 37,20 55,30 7,-20 14,-40 21,-60 29,4 57,8 85,12 20,-20 70,-64 63,-96 -1,-12 -3,-23 -4,-35 19,-15 38,-31 57,-46 -5,-22 -9,-44 -14,-66 19,-19 39,-37 58,-55 -2,-28 -3,-56 -5,-84 56,-21 113,-42 169,-62 1,9 3,18 5,27 14,-3 27,-6 40,-9 -3,-13 -5,-27 -8,-40 28,-13 28,-20 63,-27 25,-4 50,-8 75,-11 24,16 49,33 73,49 9,-21 19,-41 28,-62 3,13 6,27 9,40 62,-19 68,-72 71,-126 8,-2 17,-4 26,-6 25,52 65,111 80,178 10,50 -4,27 3,83 -13,-1 -41,-5 -43,-7 -35,13 -69,25 -103,38 -6,15 -12,30 -18,46 15,14 65,46 67,55 22,103 -81,95 -82,201 21,-10 42,-20 63,-30 12,5 38,20 46,18 21,-5 62,-33 58,-54 -8,-36 -15,-35 -28,-64 23,-5 47,-11 70,-16 -23,-32 -45,-65 -68,-97 9,-18 17,-35 26,-53 29,21 58,41 87,61 -3,5 -6,9 -9,13 107,-13 250,193 276,317 9,40 17,80 26,120 45,212 -95,483 -102,634 2,-4 4,-7 7,-11 34,24 69,47 103,71 18,-3 35,-7 53,-11 11,-27 22,-29 15,-59 -12,-57 -38,-48 -46,-87 -25,-119 113,-352 134,-476 15,-88 -2,-167 -21,-245 12,-13 23,-25 35,-37 2,2 4,5 7,7 -12,-45 -44,-101 -77,-163 -1,-46 3,-93 19,-144 68,-26 136,-52 204,-78 84,-33 259,51 305,96 93,91 118,186 200,288 14,-32 29,-65 44,-97 -51,-3 -137,-86 -144,-124 -1,-78 -2,-157 -2,-235 -74,-28 -229,51 -446,-56 -67,-32 -159,-114 -220,-207 27,-47 61,-83 97,-86 -3,-3 -6,-6 -9,-8 18,-19 36,-39 54,-58 9,12 18,23 27,34 -12,27 -23,54 -35,81 18,0 36,1 53,1 -5,23 -10,23 -10,51 0,15 34,30 51,30 5,0 22,-15 30,-20 16,4 33,8 50,12 -17,-77 -90,-55 -90,-133 0,-7 31,-38 40,-51 -7,-10 -14,-20 -20,-30zm-6364 -4558l41 9 30 -1 1 -19 -18 -4 1516 -427 94 -3c-10,-8 -20,-12 -28,-15l1024 -288c-11,9 -27,18 -45,36l350 -59 240 18 366 13 318 -5c144,3 185,9 311,33 79,16 278,-35 317,42l-53 12 7 29 89 -36 474 -7 -193 86 7 25 40 -7 241 -106 13 60 210 -38 2671 779 15 2681 -2571 1144 1 -6c-58,7 -117,14 -176,21 -15,-78 17,-65 60,-110 -116,20 -233,40 -349,60 -80,-6 -160,-13 -241,-19 -122,-4 -244,-9 -366,-13 -106,2 -211,4 -317,5 -145,-2 -186,-8 -312,-33 -78,-15 -278,35 -317,-42 18,-4 36,-7 53,-11 -2,-10 -4,-20 -6,-29 -30,11 -60,23 -90,35 -158,3 -316,5 -474,7 65,-28 129,-57 193,-86 -2,-8 -4,-17 -7,-25 -13,2 -26,5 -40,7 -80,36 -160,71 -240,107 -5,-20 -9,-41 -13,-61 -157,29 -313,57 -469,85l33 158 -2643 -1194 15 -2741 238 -67zm4287 4821l7 7 -226 93 219 -100z"/>
  <polygon class="fil1" points="14164,13548 18339,11689 18324,9008 14164,7795 10063,8948 10048,11689 "/>
  <g style="clip-path:url(#id0)">
   <g id="_1917212402400">
    <g>
     <path id="1" class="fil2" d="M10553 11805c-24,16 -14,29 -2,47l64 -41 -30 -26 -32 20zm5761 -3398l31 -9 55 -24c28,-31 27,-20 2,-47l-190 123 8 7 94 -50zm249 172l16 -11 -45 -28 -16 11c-32,-25 -18,-24 -55,-10l54 33c35,-9 -4,-12 46,5zm-589 -400l30 27 13 -10 -20 -32 -23 15zm469 524l71 -47 -22 -19 -71 46 22 20zm-255 -226c22,30 44,72 29,97l21 32 7 7 16 -10 24 -16 -45 -40 16 -34 -22 -31 -31 -13 -15 8 -22 -19 -8 5 -16 16 46 -2zm-696 -524l-38 35 15 13 31 26c27,7 64,9 91,33 17,15 6,9 22,32l27 -18 -69 -57 14 -22 136 119 46 10 -28 -79 -19 -16 -228 -76zm552 446l-30 -27 -16 10c-17,11 25,25 44,39l33 -9 -31 -13zm-824 -537c15,9 15,10 11,4l-11 -4zm210 176l-24 16 21 35 -59 -57 -150 98 -31 -3 7 18 -23 16c-18,11 -12,16 -18,35l101 52 7 -8 37 34 -23 23 -70 -9c-21,-12 -25,-10 -45,-28l-30 -26 -24 15 -30 -26 -168 106 -186 136 11 30 173 50 -3 9 -47 30 -24 -7 -22 -20 -171 -31 2 -9 -166 108 -31 20 -16 11 -126 82c16,22 5,16 22,32 57,50 103,-4 152,61l-31 21 -180 -87 -18 -3 -388 275c6,10 13,24 15,25 17,16 118,42 138,37l22 20 6 42 -13 4 -231 -71 -47 4 -119 77 -190 135 23 20c38,33 90,55 130,42l38 44c-41,22 -165,-24 -208,-49l-24 15 -22 -19 -142 92 -95 74 -71 46 -54 23 28 17 -38 25 -15 -14 -8 -6 -126 82 22 20 -3 2 -40 38 15 13 30 26c27,7 64,9 91,33 18,15 6,9 23,32l26 -17 -68 -58 6 -10c14,8 27,22 48,41l8 7 12 -7 75 66 46 10 -28 -79 -23 -20c19,-31 -17,-97 -27,-138l4 3c32,26 45,38 81,33l-13 15 38 32 47 -18 8 -5 16 -11 15 14 -40 37 19 17 38 -17 -2 -24 31 -9 -24 -22 33 -7 7 -5 23 20 54 -46 41 22 -48 5 -7 14 -34 47 15 13 103 -67 16 -10 -46 -28 16 -10 -37 -57 -22 -20 14 -23 -21 -19c-20,-18 -12,-19 2,-35 21,12 25,10 45,28l23 20c30,27 42,40 28,62l53 46 292 -190 -14 -25 7 -17 -37 -33c27,-59 -26,-85 27,-121 66,58 7,78 73,137 26,23 142,-70 173,-90l198 -128 -23 -20 32 -21 -45 -106 46 -61c37,48 7,90 46,125 17,14 23,10 46,16l322 -224 -20 -19 24 -15 -30 -26 -16 -110 4 -39 25 -21 -15 23 14 12c22,-8 25,-14 46,4 6,6 6,98 4,101l45 40 348 -238 24 -27c-92,-81 -29,-110 -73,-174l41 -12 53 11c6,34 -20,91 20,126 17,15 28,16 46,4l128 -81 60 -53 -20 -33 39 -25 38 9 -13 -25 22 -15 7 -18 -51 -57 -28 -62 15 -10 -15 -13 26 -33 68 -6 38 34 -24 15 15 13 -25 16 -13 -25c-21,16 -32,20 -9,40l22 20c-19,31 26,59 67,95l221 -144 -38 -33 -71 46 -182 -104 -8 9 -67 -60zm666 673l52 34 16 -10 -37 -32 -31 8zm-461 -346l53 46 23 -3c-24,-14 -54,-23 -22,-44l40 -25 7 6 -31 21c50,27 33,6 70,-23l-22 -20 15 -10 -15 -13 -55 36c-27,17 -36,15 -63,29zm525 511l23 -15 25 -20 -55 -7 15 13 -24 16 16 13zm-200 -43l16 -10 23 -16 -13 -65 -30 -33 32 -7 -38 -47c-2,-7 -10,-18 0,-25l88 -43c-29,1 -41,4 -71,23l-87 56c-35,23 76,110 49,153l31 14zm-413 -376l23 20 70 -46 16 25 15 -11c-61,-54 -57,-32 -124,12zm-698 -628l16 -10c-31,-29 -38,-32 -21,-56l-23 -19 -25 38 53 47zm703 729l38 9 24 -15 -15 -13 47 -31c-40,-10 -67,-21 -108,1l23 23 -55 -2 -46 -17c-34,-14 -116,39 -102,67l68 -49 11 1 6 39c54,40 75,13 109,-13zm-788 -731l-38 -22 -25 17 85 60c24,-29 18,-21 -22,-55zm1204 1013l-40 14 -97 -98 -46 -17 -278 167 -13 12 55 182 -15 11 -39 2 -30 -27 -43 -122c-86,57 -173,113 -260,170 -116,75 -85,92 -45,190l35 67 56 -23 23 20 39 -26 15 14 -16 11 38 20 -71 47 -22 -20 -27 15 -65 -36c-8,-33 -43,-42 -70,-77 -22,-30 -19,-62 -33,-75 -18,-15 -28,-16 -47,-4l-39 26 -222 155 -53 36 17 126 -38 -22 -31 9 -23 -19 -30 -27 -335 220 71 200 12 -1 23 -28 30 27 24 -16 15 13 42 -108 -27 -39 -19 23 -95 -25 84 -17 68 2 -24 -28 64 -41 20 33 -46 30 184 53 47 27 31 -31 316 -218 -8 -6 -126 -50 -56 -39 8 -28 25 -39 31 -9 23 20 -40 25 24 13 199 38 15 14 47 -31 182 -118 94 -62c-37,-28 -84,-49 -122,-35l-38 -34 -48 18 -60 -28 -46 -46 54 4 72 -33c20,-9 16,-19 41,-31l61 0 27 29 -20 -11 -65 44 225 73 354 -244 -24 -21 -109 84 -29 17 -32 -58 32 -20 -23 -20 -16 10 -19 -17 27 -22 53 27 71 -4 -75 -55 -17 11 -14 -26 24 -26 154 37 38 10 39 -14 23 20 71 -46 -46 -28 13 -35 -42 -27 16 -10 -15 -14 -23 16zm-127 82c42,16 13,24 62,-6l-22 -20 -40 26zm-936 -1153l-27 47 17 17 48 -18 14 13 -155 105 -147 -70 -47 19 7 7 53 35 16 -11c38,34 125,78 169,66l72 123 -20 13 26 16 -44 -27 -118 -59c-56,8 -206,-131 -303,-70l-23 28 32 23 -49 4c-49,32 -9,24 36,62l17 -21 111 87 39 7 0 12 -62 -6 -46 9 -46 -27 -15 -13 -23 15 -154 -60 -37 37 21 18 -32 8 12 18c-40,-25 -38,-21 -74,1l121 94 16 -10 37 33c20,5 51,9 69,24 46,41 27,45 43,79l-99 -19c-49,-43 -95,-73 -145,-56l-68 -59 -31 20 -23 -20 -23 -19 -23 15c21,12 25,10 45,28l53 46 -7 6 -62 -42 -17 12 40 20 -23 14 14 26 37 33 -16 22 -22 8 -86 -18 -23 -14 -46 -4 -7 -7 6 36 24 -15 22 19 -23 16 7 6 32 -20 22 20 -8 17c-22,8 -26,5 -47,19 -30,19 -5,0 -16,21l-31 10 -53 -47 -25 17 84 60 16 -11 23 20c35,30 33,17 60,42 20,17 3,10 30,38l-24 15c-56,-42 -92,1 -168,-63l-23 15 -99 -51 -39 3 -61 -29 -24 15 30 38c-25,29 -13,25 29,62l2 35c27,11 -1,-11 27,15l45 39 -23 16c-21,14 -35,5 -54,0l-24 16 -16 10c-17,-17 -29,-73 -52,-58l-125 -42 -11 18 -25 -21 -9 29 39 47 -80 37 23 20c26,24 129,54 144,67l53 46 -16 11 23 21 -40 13 -38 -29 -69 -5 -29 -23 -39 -2c-33,-27 -36,-33 -69,-24l-46 -28 -21 3 20 32c-21,8 -25,5 -47,19l-34 22 -35 -46 -19 13 140 81 38 22c-42,22 -52,12 -93,-7 -47,-23 -49,-3 -92,-23l-62 6 45 40 -15 10 22 20 -31 20 -6 38 80 64 37 45 -24 15 -45 -37 -116 -8 -60 -53c-23,4 -63,18 -78,28 -24,16 -41,34 -26,65l-30 -6 15 14 -16 10 40 33 -4 -48 49 29 -31 -3 28 39 11 -7 21 21 15 19 6 36 -23 16 -109 -91 -50 -7 -61 -47 -23 15 30 26 60 42c23,5 29,1 46,16l30 26c36,33 14,43 51,82l45 40 -23 15 -45 -39 -16 10 -23 -20 6 -9 -41 -15 20 22 -15 10 -54 -34 21 -61 -13 -4 -16 24 -36 -44 -137 -39 -24 16 15 13 -24 15 2 2c-2,0 -4,1 -5,1l22 32 33 57 -9 -1 -31 17 30 38 0 0 -4 3 15 25 54 11 -24 15 -7 16 58 42 25 -27 -7 -34 -15 -20 45 -17 -1 9 69 5 -23 26 21 19 8 7 22 31 24 -15 97 -63 18 23 148 -97 -22 -20 -87 57c-3,2 -5,3 -8,5l106 -69 -118 -119c-13,-11 -20,-7 -47,-27l32 -21 -23 -20 16 -10 53 46 39 22 6 18 22 20 32 -20 11 3 -24 51 -12 -4c15,21 6,18 22,32 25,22 91,-36 118,-54l39 -25 166 -96 -37 -69 -4 -34 -36 -78 84 82 32 59 29 -9 319 -215 39 -26 -45 -40 24 -15 -24 -31 33 -21 23 20c26,23 23,29 45,51l134 -87 87 -57 71 -46 79 -51 -35 -116 -14 -48 53 46 23 -15 39 34 -41 13 38 45 118 -77 16 -11 78 -53 159 -101 -39 -96 -12 3 12 -35 94 92 40 -25 102 -80 17 -33c25,-9 26,-4 39,-15l151 -108 -75 -66c21,-35 -15,-38 -44,-64l-30 -26 23 -16 23 20 -16 11 23 19 15 -10 30 27c17,14 11,18 15,36l67 60 114 -82 -85 -86 -49 -19 -97 -59 -30 6 -30 -25c-7,-7 -13,-12 -19,-15l-20 -7c-6,0 -13,2 -22,4zm563 993c14,-11 32,-20 16,-34 -6,-6 -23,-7 -31,-3 -16,11 1,23 15,37l-61 -29 -4 -4 -26 -23 -99 -63c-71,6 -158,102 -229,133 -31,14 -191,114 -158,143 41,36 11,-18 68,24 -45,28 -80,12 -122,-24l-190 124 71 32 -18 14 -54 -34c-21,8 -25,5 -46,19l-111 71c-21,14 -18,18 -32,33l-16 10 20 36 -35 -26 -16 11c-31,4 -1,-11 -31,8l-182 119 60 53c-60,15 -65,-50 -115,-17l-48 30 -78 64 44 28 -30 -27c45,-24 40,-11 46,16l40 -37 15 13 -16 10 15 14 4 -8 58 25 46 -52 26 -28 38 8 -24 16 15 13 16 -10 23 20 24 -17 -39 -19 8 -10 -38 -18 32 -20 -22 -19 -25 1 94 -36 32 14 45 40 -29 -11 -27 59 16 -22c19,14 111,43 131,30l200 -132 -64 -27 38 -12 47 27 31 -21 16 -10 95 -61 -68 -60 123 16 166 -112 198 -129 38 -13 -6 -31 8 -5 150 -86 23 -28 -22 -19 6 19 -30 20 -15 -13zm-640 -274c-26,-47 21,3 -22,-44 -43,41 3,0 -25,39 16,1 31,3 47,5zm-509 -268l-1 -30 10 -10 22 20c43,-34 6,-30 39,-14l22 -29 40 35c-44,28 -56,21 -33,55l0 1 21 -8 -21 7 -31 11 -68 -38zm1344 1174l-22 -19 -142 92 24 21 33 -31 107 -63zm-1020 -1178l-22 -20 23 -15 23 20 -24 15zm-607 142l7 7 16 -10 -58 -66c-23,19 -26,27 -3,48 16,14 13,7 38,21zm1423 1171l-23 -21 -151 98 16 13 30 -22 128 -68zm-443 -657c14,41 25,12 -9,40l-38 -33c26,-14 24,-10 47,-7zm-227 792l-23 -20 16 -10 -26 -23 -2 -5 13 -8 61 40 56 -36 100 16 -63 41 -214 151 -10 -61 23 -11 0 -8 -18 -9 16 -11 25 -3 8 -30 37 22 24 -15 -23 -20zm323 55l15 13 78 -39 39 -39 -14 -12 -118 77zm-1555 -1130l-24 16 37 32 47 -29 -21 -33 -23 -8 -16 11 15 15 -15 -4zm601 530l-30 -26 -15 -13 -13 -26 21 -14 21 11 15 22 -21 15 30 26 -8 5zm-544 -152c38,21 22,11 62,5l-1 -41 -61 36zm481 666l15 13c36,-20 13,-10 54,-13l-14 -36 -55 36zm-85 -26c34,-27 35,-25 10,-52 -34,26 -35,25 -10,52zm312 396l39 -26 -15 -13 -23 15 -39 -10 -56 -24 -7 8 -50 -59 -16 10 -47 31 -47 -2 -6 26 -48 -3 102 -68c35,-19 25,-5 55,-25 11,-7 3,-26 1,-35l-31 -13 -165 106 15 25 -39 39c-24,-19 -31,-28 -55,-12l-24 15 15 13 58 124 24 16 32 -75 -17 -7 -51 -18 32 -21 60 30 -16 10 23 20c19,17 20,15 38,22l14 36 62 6 -15 -13 15 -10 -36 -32 -25 2 16 -10 -30 -26 54 -1 140 35 -79 -57 48 -3 -22 -20 23 -15 2 8 68 -7 23 19 0 -11zm-323 -274l-15 -13 15 -10 15 13 16 -10 -36 -16 14 -28 -15 -13 -76 44 21 -8c19,28 4,28 14,37 21,18 25,12 47,4zm535 182l-156 105c-30,16 1,19 -27,37l-39 25 -15 -13 -22 15 12 24 95 -48 125 -84 57 -35c19,-13 5,-7 24,-27l-8 -6 -46 7zm-637 -162l-1 35c22,12 25,19 47,5l31 -21 -22 -19c-22,-19 -32,-14 -55,0zm-177 1l15 13 23 8 -48 31 5 -8 -111 -38 16 17 -48 4 -95 67 12 -1c-5,5 -7,10 -7,15l-21 -9 -26 19 64 26 36 56 -30 -14 -17 11 61 52 0 12 55 36 37 -27 56 -36 -96 -90 45 20 7 -17 99 51 63 -42 16 -10 63 -41 -23 -20 -118 77 -46 -27 24 -16 -37 -33 86 -3 53 15 16 -33 -91 -44 23 -15 -22 -20 -39 14zm433 443l15 13 32 -32 -14 -25 -48 31 15 13zm-1141 -1007l15 13 -26 26c-23,-17 -21,-13 -44,-15l31 -21 -7 -6 -31 9 31 -21 31 15zm541 661l31 37 -8 16 -62 -28 39 -25zm-178 -195l-5 -31 30 -8 22 20 -13 14 -34 5zm302 459l-40 38 30 26 8 -5 39 -25 0 0 -122 79 8 7 94 -50 31 -9 3 -1 20 37 26 -49 50 -51 30 26 24 -15 -45 -40 10 0 -9 -54 -157 86zm-301 1l68 24 24 -2 -23 -21 -22 -20 -31 9 -16 10zm-728 -607l10 4 -8 5 -2 -9zm71 113l23 20 24 -16 -23 -20 -24 16zm178 229c34,19 28,18 62,6 -33,-24 -16,-21 -62,-6zm-82 -73c-2,9 -25,15 6,42 25,22 35,16 54,12l-60 -54zm-48 31l17 -22 -16 -13 -23 15 22 20zm-2008 2341l23 -6 54 -25c28,-30 27,-19 2,-46l-103 66 24 11zm-712 -703c-27,18 -36,15 -63,30l24 31 148 -97 -11 -10 1 -1 -23 -20 -23 16 11 10 -64 41zm363 478l30 27 14 -10 -20 -32 -24 15zm-490 -360l47 -31 -23 -20c-32,23 -39,24 -24,51zm11 131l-40 37 15 14 30 26c27,7 64,8 92,33 11,9 10,10 12,16l20 9 16 -11 -68 -57 14 -23 135 119 46 11 -28 -80 -23 -20c25,-40 -46,-143 -25,-167l-23 -20 -173 113zm4013 -1339l15 -11 -45 -28 -16 11c-32,-25 -18,-24 -54,-10l53 33c35,-9 -4,-12 47,5zm-590 -400l30 27 14 -10 -20 -32 -24 15zm-491 -360l48 -30 -23 -20c-33,22 -39,24 -25,50zm961 884l71 -46 -23 -20 -71 46 23 20zm-256 -225c22,29 44,71 29,96l21 32 8 7 15 -10 24 -16 -45 -40 16 -33 -21 -32 -32 -13 -15 9 -22 -20 -8 5 -16 16 46 -1zm-144 -79l-30 -27 -16 10c-17,11 25,25 44,39l33 -9 -31 -13zm-906 -643l-25 -11 -52 -19 -15 10 52 46c20,-4 46,-1 63,17l51 59c38,19 15,15 9,-16 -4,-21 2,-22 -23,-44 -26,-23 -35,-22 -60,-42zm958 955l53 34 15 -10 -36 -32 -32 8zm-666 -673l-24 16 21 35 -59 -57 -150 98 -31 -3 7 19 -23 15c-18,11 -12,16 -18,35l102 52 6 -8 38 34 -24 23 -70 -9c-21,-12 -25,-10 -45,-28l-30 -26 -24 15 -30 -26 -168 106 -186 136 11 30 173 50 -3 9 -47 30 -23 -7 -23 -20 -171 -31 2 -9 -165 108 -32 20 -16 11 -126 82c16,22 5,16 22,32 57,50 103,-4 152,62l-31 20 -180 -87 -18 -3 -388 275c7,10 13,24 15,25 18,16 118,43 138,37l22 20 7 42 -14 4 -230 -71 -48 4 -118 77 -190 135 22 20c38,33 91,55 130,42l38 44c-41,22 -165,-24 -208,-49l-23 16 -23 -20 -142 92 -95 74 -71 46 -54 23 35 21 -38 27 -22 -20 -8 -6 -126 82 30 26 -16 11 45 39c43,-11 52,10 92,45l7 6 16 -10 24 -15 -37 -23 30 -19 -22 -20 38 -16 -21 -30 29 -8 -24 -44 27 20c31,26 45,38 80,33l-12 15 37 33 47 -19 8 -5 16 -11 15 14 -40 37 19 17 38 -17 -2 -24 31 -9 -23 -21 32 -8 8 -5 22 20 55 -46 40 22 -48 5 -7 14 -33 47 15 13 102 -66 16 -11 -46 -28 16 -10 -36 -57 -23 -20 14 -23 -20 -19c-21,-18 -12,-19 1,-35 21,12 25,10 45,28l23 20c30,27 42,40 29,62l52 46 292 -190 -14 -25 7 -17 -36 -33c26,-59 -27,-85 27,-121 65,58 6,78 72,137 27,23 142,-69 173,-90l198 -128 -23 -20 32 -21 -45 -106 47 -61c37,48 6,90 46,125 17,14 22,10 46,16l322 -224 -21 -18 24 -16 -30 -26 -16 -110 4 -38 25 -22 -15 23 14 12c22,-7 25,-14 46,5 7,5 7,97 5,100l45 40 347 -238 25 -27c-93,-81 -30,-110 -73,-174l40 -12 54 11c5,34 -20,91 19,126 17,15 28,16 46,4l128 -81 60 -53 -20 -33 39 -25 39 9 -14 -25 23 -15 6 -18 -50 -57 -29 -62 16 -10 -15 -13 25 -33 69 -6 37 34 -24 15 15 13 -25 16 -13 -25c-20,16 -32,20 -9,40l23 20c-20,31 25,59 66,95l221 -144 -37 -33 -71 46 -183 -103 -8 8 -67 -60zm206 327l52 46 23 -3c-23,-14 -53,-23 -21,-44l39 -25 8 6 -32 21c51,28 34,6 70,-23l-22 -20 16 -10 -15 -13 -56 36c-27,18 -36,15 -62,29zm524 511l23 -15 25 -20 -55 -7 15 13 -23 16 15 13zm-200 -43l16 -10 24 -16 -14 -65 -29 -33 32 -7 -38 -47c-3,-7 -11,-18 -1,-25l88 -43c-28,1 -41,4 -70,23l-87 56c-36,23 75,110 48,153l31 14zm-412 -376l22 20 71 -46 15 25 16 -11c-62,-54 -57,-32 -124,12zm-699 -628l16 -10c-31,-29 -37,-32 -21,-55l-23 -20 -25 38 53 47zm-85 -2l-37 -22 -26 17 85 60c24,-28 18,-20 -22,-55zm788 731l38 9 24 -15 -15 -13 47 -31c-39,-10 -66,-21 -108,1l23 23 -55 -2 -45 -17c-35,-14 -117,39 -103,67l68 -49 11 2 6 38c54,40 75,13 109,-13zm416 282l-39 14 -98 -98 -45 -16 -278 166 -14 12 56 182 -16 11 -39 2 -30 -27 -42 -122c-87,57 -174,113 -261,170 -116,75 -85,92 -45,190l35 67 57 -23 22 20 40 -25 15 13 -17 11 39 20 -71 47 -23 -20 -27 15 -65 -36c-8,-33 -43,-42 -69,-77 -22,-30 -20,-62 -34,-74 -17,-16 -28,-17 -46,-5l-40 26 -221 155 -54 36 17 126 -38 -22 -31 10 -22 -20 -30 -27 -335 221 70 199 13 -1 22 -28 31 27 23 -16 15 13 42 -108 -27 -39 -18 23 -96 -25 84 -17 68 2 -23 -27 63 -42 20 33 -45 30 183 53 47 27 31 -31 316 -218 -7 -6 -127 -50 -56 -39 9 -28 24 -39 31 -9 23 20 -40 26 25 12 198 39 15 13 47 -31 182 -118 95 -62c-38,-28 -84,-48 -123,-35l-37 -33 -49 17 -59 -28 -47 -46 54 4 72 -33c21,-9 17,-19 42,-30l60 -1 28 30 -21 -12 -64 44 224 73 354 -244 -24 -21 -109 85 -29 16 -32 -58 32 -20 -23 -20 -15 10 -20 -17 28 -22 52 27 71 -4 -75 -55 -17 11 -13 -26 23 -26 154 37 38 10 39 -14 23 20 71 -46 -46 -28 13 -35 -42 -27 16 -10 -15 -14 -23 16zm-127 82l40 -26 22 20c-49,30 -20,22 -62,6zm-1035 -478c43,47 -4,-2 22,44 -15,-2 -31,-4 -46,-5 27,-39 -18,2 24,-39zm99 -675l-26 47 17 17 47 -18 15 13 -155 105 -148 -70 -47 19 8 7 53 35 15 -11c39,34 125,78 169,66l72 123 -20 13 27 17 -45 -28 -118 -59c-56,8 -205,-131 -303,-70l-23 28 32 23 -49 4c-49,32 -9,25 36,63l17 -22 111 88 40 6 -1 12 -61 -6 -47 10 -45 -28 -15 -13 -24 15 -153 -60 -37 37 20 18 -32 8 13 18c-40,-25 -39,-21 -75,1l121 94 16 -10 37 33c20,5 51,9 69,24 46,41 27,45 43,79l-99 -19c-49,-43 -94,-73 -145,-56l-68 -59 -31 20 -23 -20 -22 -19 -24 15c21,12 25,10 45,28l53 46 -7 6 -61 -42 -17 12 39 20 -23 15 14 25 37 33 -16 22 -21 8 -87 -18 -22 -14 -47 -4 -7 -7 6 36 24 -15 23 20 -24 15 7 7 32 -21 23 20 -9 17c-21,8 -25,5 -47,19 -30,19 -5,0 -16,21l-31 10 -53 -47 -25 17 85 60 15 -10 23 19c35,30 33,17 60,42 20,17 3,10 30,38l-24 15c-56,-42 -92,1 -168,-63l-23 15 -99 -50 -39 2 -61 -29 -23 15 29 38c-25,29 -13,25 29,62l2 35c27,11 -1,-11 28,15l45 39 -24 16c-21,14 -34,6 -54,1l-24 15 -16 10c-17,-17 -29,-73 -52,-58l-125 -42 -11 18 -25 -21 -8 29 39 47 -81 37 23 20c27,24 129,54 144,67l53 47 -16 10 23 21 -39 13 -39 -29 -68 -5 -30 -23 -39 -2c-33,-27 -36,-33 -69,-24l-45 -28 -22 3 20 32c-21,8 -25,6 -47,19l-33 22 -35 -46 -19 13 139 81 38 22c-42,22 -52,13 -92,-7 -48,-23 -49,-3 -92,-23l-62 6 45 40 -16 10 22 20 -31 20 -5 38 79 64 37 45 -24 15 -45 -36 -116 -9 -60 -53c-23,4 -63,18 -78,28 -24,16 -41,34 -26,65l-30 -5 15 13 -16 10 41 33 -5 -47 49 28 -31 -3 28 39 11 -6 21 20 15 19 7 36 -24 16 -108 -91 -51 -7 -60 -47 -24 15 30 27 60 41c23,6 29,1 46,16l30 27c37,32 14,42 52,81l45 40 -24 15 -45 -39 -16 10 -22 -20 5 -9 -41 -15 20 23 -15 9 -54 -34 21 -61 -13 -4 -16 24 -36 -44 -137 -39 -24 16 15 13 -23 16 22 19 23 20 46 -7 -1 35 -8 29 -40 -6 -30 17 29 38 92 33 48 -18 -1 8 69 5 -23 26 22 19 7 7 22 31 24 -15 253 -164 -119 -119c-13,-11 -20,-7 -47,-27l32 -21 -23 -20 16 -10 53 47 39 21 6 18 22 20 32 -20 11 3 -24 51 -12 -4c15,21 6,18 22,32 25,22 91,-36 118,-54l39 -25 166 -96 -37 -69 -4 -34 -36 -78 85 82 31 60 29 -10 319 -215 40 -26 -45 -39 23 -16 -24 -31 34 -21 22 20c26,23 24,29 45,51l134 -87 87 -56 71 -47 79 -51 -35 -116 -14 -48 53 46 24 -15 38 34 -40 13 37 45 119 -77 16 -11 77 -53 159 -101 -39 -96 -12 3 13 -35 93 93 40 -26 102 -80 18 -33c24,-9 25,-4 38,-15l151 -108 -75 -66c22,-35 -15,-38 -44,-64l-30 -26 24 -16 22 20 -16 11 23 19 16 -10 30 27c16,15 10,18 14,36l67 60 114 -82 -85 -86 -49 -18 -97 -60 -30 6 -29 -25c-29,-25 -36,-24 -62,-18zm563 993c14,-11 32,-20 17,-34 -7,-6 -24,-7 -31,-3 -16,11 1,23 14,37l-61 -29 -4 -4 -26 -23 -98 -63c-72,6 -159,102 -229,133 -32,14 -192,114 -159,143 41,36 11,-18 69,24 -46,28 -81,13 -123,-24l-190 124 71 32 -18 14 -54 -33c-21,7 -25,4 -46,18l-111 72c-21,13 -18,17 -32,32l-15 10 19 36 -35 -26 -16 11c-31,5 -1,-11 -31,8l-182 119 60 53c-60,15 -65,-50 -115,-17l-47 30 -79 64 45 28 -30 -27c44,-24 39,-11 45,16l40 -37 15 13 -15 10 15 14 3 -8 58 25 47 -52 25 -28 38 8 -23 16 15 13 16 -10 22 20 24 -17 -39 -19 8 -10 -37 -18 31 -20 -21 -19 -26 1 95 -36 31 14 45 40 -29 -11 -27 59 16 -22c19,14 111,43 131,30l200 -132 -64 -27 38 -12 47 27 32 -20 15 -11 95 -61 -68 -60 123 16 167 -112 197 -129 38 -13 -6 -31 8 -5 150 -86 23 -28 -22 -19 6 19 -30 20 -15 -13zm-847 -566l22 20 24 -15 -22 -20 -24 15zm-302 24l69 38 30 -11 21 -7 -21 8 0 -1c-23,-34 -11,-27 33,-55l-40 -35 -22 29c-32,-16 4,-20 -39,14l-22 -20 -10 11 1 29zm1345 1175l-23 -20 -142 92 24 21 33 -30 108 -63zm-694 -516l37 33c34,-28 24,1 9,-40 -22,-3 -21,-7 -46,7zm-934 -521l8 7 15 -10 -57 -66c-24,19 -27,27 -4,48 16,14 13,7 38,21zm1423 1171l-23 -21 -150 98 15 13 30 -22 128 -68zm-347 190l15 13 79 -39 38 -39 -14 -12 -118 77zm-323 -55l-22 -20 15 -10 -26 -23 -1 -5 12 -8 62 41 55 -36 100 15 -63 41 -214 151 -9 -61 23 -11 0 -8 -19 -9 16 -11 26 -3 7 -30 37 23 24 -16 -23 -20zm-1232 -1075l-24 16 37 32 47 -29 -21 -33 -23 -8 -16 11 15 15 -15 -4zm564 451l-21 14 13 26 15 13 30 26 8 -5 -30 -26 21 -15 -15 -22 -21 -11zm-507 -73l62 -36 0 42c-40,5 -24,15 -62,-6zm481 666l15 13c36,-20 13,-10 54,-13l-14 -36 -55 36zm-84 -26c33,-27 34,-25 9,-52 -34,26 -34,25 -9,52zm-12 123l-15 -14 16 -10 15 13 15 -10 -35 -16 14 -27 -16 -14 -76 44 21 -8c19,28 4,28 15,37 20,18 24,12 46,5zm323 273l40 -26 -15 -13 -24 15 -38 -9 -57 -25 -7 8 -50 -59 -16 10 -47 31 -46 -2 -7 26 -48 -3 103 -68c35,-19 25,-5 54,-24 11,-8 4,-27 2,-36l-32 -13 -165 106 15 25 -39 39c-24,-19 -31,-28 -55,-12l-23 15 15 13 58 124 23 16 33 -75 -18 -7 -51 -18 32 -21 60 30 -16 10 23 20c19,17 20,15 39,22l13 36 62 6 -15 -13 16 -10 -37 -32 -24 2 15 -10 -30 -26 55 -1 139 35 -78 -57 48 -3 -23 -20 24 -15 1 8 68 -7 23 19 0 -11zm212 -92l-155 105c-30,16 0,19 -28,37l-39 25 -15 -13 -22 15 12 25 95 -49 125 -84 57 -34c19,-14 6,-8 24,-28l-8 -6 -46 7zm-636 -162l-1 36c21,11 24,18 46,4l31 -21 -22 -19c-22,-19 -32,-14 -54,0zm256 444l15 13 32 -32 -15 -25 -47 31 15 13zm-434 -443l15 13 23 8 -47 31 4 -8 -111 -38 16 17 -48 4 -94 67 69 -5 37 45 -8 17 -114 -52 -26 19 63 26 37 56 -31 -14 -17 11 61 52 0 12 55 36 38 -27 55 -36 -96 -90 45 20 7 -17 99 51 63 -41 16 -11 63 -41 -22 -20 -119 77 -45 -27 24 -16 -38 -33 86 -3 53 15 16 -33 -91 -44 24 -15 -23 -20 -39 14zm-770 -558l31 -9 8 6 -32 21c23,2 21,-2 44,15l26 -26 -15 -13 -30 -15 -32 21zm425 460l35 -5 12 -14 -22 -20 -29 9 4 30zm302 460l-40 37 30 27 8 -6 39 -25 34 64 26 -50 50 -51 30 27 24 -16 -45 -40 11 0 -10 -54 -157 87zm-301 0l69 24 24 -2 -24 -21 -22 -20 -31 9 -16 10zm-480 -388l20 19c30,-23 29,-24 10,-52l-30 33zm2 123c33,19 27,18 61,6 -33,-24 -16,-21 -61,-6zm-83 -72c-2,8 -25,14 6,41 25,22 35,16 54,12l-60 -53zm-47 30l16 -22 -15 -13 -24 16 23 19z"/>
     <path class="fil2" d="M17949 9806c-24,15 -14,29 -2,47l64 -41 -30 -27 -32 21zm-506 -362c-27,18 -36,15 -63,29l24 31 148 -97 -11 -10 1 0 -23 -20 -23 15 11 10 -64 42zm703 705l32 -9 54 -24c29,-30 27,-20 2,-47l-189 124 7 6 94 -50zm250 172l16 -10 -46 -28 -16 10c-32,-24 -18,-23 -54,-10l54 33c34,-9 -4,-12 46,5zm-590 -399l30 26 14 -9 -20 -33 -24 16zm-490 -360l47 -31 -23 -20c-32,23 -39,24 -24,51zm960 883l71 -46 -23 -20 -71 46 23 20zm-1270 -1108l44 75 54 34c71,-59 -28,-172 -120,-141l22 32zm1014 883c22,30 44,71 29,96l21 32 8 7 16 -10 23 -16 -45 -39 17 -34 -22 -32 -32 -13 -15 9 -22 -20 -8 5 -16 16 46 -1zm-693 -527l-40 37 15 13 30 27c27,6 64,8 92,32 17,15 6,10 22,32l26 -17 -68 -57 14 -23 135 119 46 10 -28 -79 -23 -20c26,-40 -46,-143 -25,-168l-23 -20 -173 114zm549 448l-30 -27 -16 11c-17,11 25,24 45,38l33 -9 -32 -13zm-836 -665l54 11 -24 16 -7 16 58 41 26 -27 -8 -34 -21 -27 -16 10 -5 -30 -41 -20 -30 19 14 25zm-70 23l-25 -12 -51 -19 -16 10 52 46c20,-4 46,-1 63,17l51 59c38,20 15,15 9,-16 -3,-21 3,-22 -23,-44 -26,-23 -35,-22 -60,-41zm292 282l-24 15 22 35 -60 -56 -150 97 -30 -3 7 19 -24 15c-18,12 -11,17 -17,35l101 53 6 -8 38 33 -24 23 -70 -9c-20,-12 -25,-10 -45,-28l-30 -26 -24 15 -30 -26 -168 106 -185 136 10 30 173 51 -3 8 -46 30 -24 -7 -23 -20 -171 -31 3 -9 -166 108 -32 21 -16 10 -126 82c16,22 5,17 22,32 57,50 103,-4 153,62l-32 20 -180 -86 -18 -4 -388 276c7,9 13,23 15,25 18,15 118,42 138,37l22 20 7 41 -14 4 -230 -71 -48 4 -118 77 -190 135 22 20c39,34 91,55 130,42l38 45c-41,22 -165,-25 -207,-50l-24 16 -23 -20 -142 92 -95 74 -71 46 -54 23 28 17 -38 25 -15 -14 -7 -6 -127 82 23 20 -4 3 -40 37 15 13 30 27c27,7 65,8 92,32 17,15 6,10 22,32l26 -17 -68 -57 6 -11c14,8 27,23 49,42l7 6 12 -7 75 66 47 10 -29 -79 -22 -20c19,-30 -18,-97 -27,-138l4 3c31,27 45,38 81,33l-13 15 37 33 47 -19 8 -5 16 -10 15 13 -40 37 19 17 38 -17 -2 -23 31 -10 -23 -21 32 -7 8 -6 23 21 54 -47 40 22 -48 5 -7 14 -33 47 15 14 102 -67 16 -11 -45 -27 16 -11 -37 -56 -23 -20 14 -23 -20 -19c-21,-19 -12,-20 1,-36 21,13 25,11 45,28l23 20c30,27 42,40 29,62l52 46 293 -190 -15 -25 7 -17 -36 -33c26,-59 -26,-85 27,-121 66,58 7,79 73,137 26,23 141,-69 173,-90l197 -128 -22 -20 31 -21 -45 -106 47 -60c37,48 6,89 46,124 17,15 23,10 46,16l322 -224 -21 -18 24 -16 -30 -26 -15 -110 3 -38 25 -22 -15 23 14 12c22,-7 26,-14 46,5 7,5 7,97 5,100l45 40 348 -238 24 -27c-93,-81 -30,-110 -73,-174l40 -12 54 11c6,34 -20,91 19,126 17,15 28,16 46,4l128 -80 60 -54 -20 -32 39 -26 39 10 -14 -26 23 -15 7 -17 -51 -58 -29 -62 16 -10 -15 -13 25 -33 69 -5 37 33 -23 15 15 13 -26 16 -13 -25c-20,16 -31,20 -9,40l23 20c-19,31 25,59 66,95l221 -144 -37 -33 -71 46 -183 -103 -7 8 -68 -59zm666 672l53 34 16 -10 -37 -31 -32 7zm-460 -346l52 46 24 -3c-24,-14 -54,-22 -22,-43l39 -26 8 7 -32 20c51,28 34,6 71,-23l-23 -19 16 -11 -15 -13 -56 36c-27,18 -36,15 -62,29zm524 511l24 -15 24 -20 -54 -7 15 14 -24 15 15 13zm-200 -43l16 -10 24 -15 -14 -66 -29 -33 32 -7 -38 -47c-3,-7 -11,-18 -1,-24l88 -44c-28,1 -41,4 -70,23l-87 56c-36,23 76,110 48,154l31 13zm-412 -376l22 20 71 -46 15 25 16 -10c-61,-54 -57,-32 -124,11zm-698 -628l15 -10c-31,-29 -37,-32 -21,-55l-23 -20 -24 39 53 46zm702 729l38 10 24 -16 -15 -13 48 -31c-40,-10 -67,-21 -109,1l23 23 -54 -2 -46 -16c-34,-15 -117,39 -103,66l68 -48 11 1 6 38c54,41 75,13 109,-13zm-787 -731l-38 -21 -26 16 85 60c24,-28 18,-20 -21,-55zm1203 1013l-39 14 -97 -98 -46 -16 -278 166 -14 12 56 183 -16 10 -39 2 -30 -26 -42 -123c-87,57 -174,114 -261,170 -116,75 -85,92 -45,190l35 67 57 -22 22 19 40 -25 15 13 -17 11 39 21 -71 46 -23 -20 -27 15 -65 -36c-8,-32 -43,-42 -69,-77 -22,-30 -20,-61 -34,-74 -17,-16 -28,-17 -46,-5l-40 26 -221 156 -54 36 18 125 -39 -21 -31 9 -22 -20 -30 -27 -335 221 70 199 13 -1 23 -28 30 27 23 -16 15 14 43 -108 -28 -39 -18 22 -96 -25 84 -17 68 2 -23 -27 63 -41 20 32 -45 30 184 53 46 27 31 -31 316 -217 -7 -7 -127 -49 -56 -39 9 -29 25 -39 30 -9 23 20 -39 26 24 12 198 39 15 13 47 -31 182 -118 95 -62c-37,-28 -84,-48 -123,-35l-37 -33 -48 17 -60 -28 -47 -46 54 4 73 -33c20,-9 16,-18 41,-30l60 -1 28 30 -21 -12 -64 45 224 72 354 -244 -23 -21 -110 85 -29 16 -31 -57 31 -21 -22 -20 -16 10 -20 -17 28 -22 52 28 71 -5 -75 -55 -17 11 -13 -26 24 -26 153 38 38 9 40 -14 22 20 71 -46 -45 -28 12 -35 -41 -27 16 -10 -15 -13 -24 15zm-126 82c41,16 13,25 62,-6l-23 -19 -39 25zm-936 -1152l-27 46 17 18 47 -19 15 13 -155 105 -148 -69 -47 19 8 6 53 35 15 -10c39,33 125,77 169,66l73 122 -21 13 27 17 -45 -28 -118 -58c-56,8 -205,-131 -303,-71l-23 28 32 23 -49 4c-49,32 -9,25 36,63l17 -22 111 88 40 6 0 12 -62 -6 -47 10 -45 -28 -15 -13 -24 15 -153 -60 -37 37 20 19 -32 7 13 19c-40,-26 -39,-22 -74,0l120 94 16 -10 37 33c20,5 51,9 69,24 46,41 27,45 43,79l-99 -19c-49,-43 -94,-73 -145,-55l-67 -60 -32 21 -23 -20 -22 -20 -24 15c21,12 25,10 46,28l52 47 -6 6 -62 -43 -17 12 39 20 -23 15 14 26 38 33 -17 22 -21 8 -87 -19 -22 -14 -46 -4 -8 -7 7 36 23 -15 23 20 -24 15 8 7 31 -21 23 20 -9 17c-21,8 -25,5 -47,19 -30,20 -5,0 -16,22l-31 9 -52 -46 -26 16 85 60 16 -10 22 20c36,30 33,17 61,41 19,17 2,10 29,38l-23 16c-57,-43 -93,0 -168,-64l-24 16 -99 -51 -39 2 -61 -28 -23 14 30 38c-26,30 -13,25 28,62l3 36c26,10 -2,-11 27,14l45 40 -24 15c-21,14 -34,6 -54,1l-24 15 -15 10c-18,-17 -29,-73 -53,-58l-124 -41 -12 17 -24 -21 -9 29 39 47 -81 37 23 20c27,24 129,54 145,67l52 47 -16 10 23 21 -39 13 -39 -29 -68 -5 -29 -23 -40 -1c-33,-28 -36,-33 -69,-25l-45 -28 -21 3 20 33c-22,8 -26,5 -47,19l-34 21 -35 -46 -19 14 139 81 38 21c-41,22 -52,13 -92,-7 -48,-23 -49,-3 -92,-23l-62 6 45 40 -16 10 23 20 -32 21 -5 37 79 64 37 45 -24 15 -45 -36 -115 -9 -60 -53c-24,4 -64,19 -79,28 -24,16 -41,34 -26,65l-30 -5 15 13 -15 10 40 33 -5 -47 49 28 -30 -3 27 39 11 -6 21 20 15 20 7 36 -24 15 -108 -91 -50 -7 -61 -47 -24 15 30 27 61 41c23,6 29,1 45,16l30 27c37,32 14,43 52,81l45 40 -24 16 -45 -40 -16 10 -22 -20 6 -9 -41 -15 19 23 -14 9 -54 -34 21 -61 -13 -3 -17 23 -35 -44 -138 -38 -23 15 15 13 -24 16 1 1c-1,0 -3,1 -5,1l22 32 34 57 -10 -1 -30 17 29 38 1 1 -4 2 14 25 54 11 -24 16 -7 16 58 41 26 -26 -8 -35 -15 -19 45 -17 -1 9 69 4 -23 26 22 19 7 7 22 32 24 -16 97 -63 18 24 149 -97 -23 -20 -87 56c-2,2 -5,4 -7,5l106 -69 -118 -119c-13,-11 -20,-6 -47,-27l31 -20 -22 -20 15 -11 53 47 39 21 6 19 23 19 31 -20 11 3 -23 52 -13 -4c15,21 7,17 22,31 25,22 92,-36 118,-53l40 -26 165 -96 -36 -69 -5 -33 -36 -78 85 81 31 60 29 -10 319 -215 40 -25 -45 -40 23 -16 -23 -31 33 -21 22 20c26,23 24,30 45,52l134 -88 87 -56 71 -47 79 -51 -35 -115 -13 -49 52 46 24 -15 38 34 -40 13 37 45 119 -77 16 -10 77 -53 160 -102 -40 -95 -11 2 12 -35 93 93 40 -26 102 -79 18 -34c24,-8 25,-4 38,-14l151 -109 -75 -66c22,-35 -15,-38 -44,-63l-30 -27 24 -15 22 20 -16 10 23 20 16 -11 30 27c17,15 10,19 14,37l68 59 113 -81 -85 -87 -49 -18 -96 -60 -31 6 -29 -25c-29,-25 -35,-24 -61,-17zm562 992c14,-11 32,-20 17,-34 -7,-5 -24,-7 -31,-3 -16,11 1,24 14,37l-61 -29 -3 -4 -27 -23 -98 -62c-72,5 -159,101 -229,132 -32,14 -192,114 -159,143 42,37 11,-17 69,24 -46,29 -80,13 -123,-23l-189 123 70 33 -18 13 -54 -33c-21,7 -25,4 -46,18l-110 72c-22,14 -19,17 -32,32l-16 10 19 36 -35 -25 -16 10c-30,5 -1,-11 -31,9l-182 118 60 53c-60,15 -65,-50 -115,-17l-47 31 -78 64 44 27 -30 -27c44,-24 40,-11 45,16l41 -37 15 13 -16 11 15 13 4 -8 57 26 47 -53 25 -27 39 8 -24 15 15 13 16 -10 22 20 25 -16 -40 -20 8 -10 -37 -17 31 -21 -21 -19 -26 1 95 -35 31 13 45 40 -29 -11 -27 59 17 -22c18,14 110,43 130,30l200 -132 -64 -27 38 -11 47 26 32 -20 16 -11 94 -61 -67 -60 122 17 167 -113 197 -128 38 -14 -5 -30 7 -6 150 -85 23 -28 -21 -19 5 18 -30 21 -15 -14zm-640 -274c-25,-46 22,3 -22,-43 -42,40 3,-1 -24,39 15,1 31,2 46,4zm-509 -267l-1 -30 10 -11 23 20c42,-34 6,-30 39,-14l22 -28 39 34c-44,29 -56,22 -33,56l1 0 21 -8 -22 8 -30 10 -69 -37zm1345 1174l-23 -20 -142 92 25 21 32 -30 108 -63zm-1020 -1178l-23 -20 24 -16 22 20 -23 16zm-608 141l8 7 16 -10 -58 -66c-24,19 -27,28 -4,48 16,14 13,7 38,21zm1424 1172l-24 -21 -150 97 15 13 30 -22 129 -67zm-444 -658c15,41 25,12 -9,40l-37 -33c25,-13 24,-10 46,-7zm-227 792l-22 -19 16 -11 -27 -23 -1 -5 13 -8 61 41 55 -36 100 15 -63 42 -214 150 -9 -60 23 -11 0 -9 -18 -9 15 -10 26 -4 7 -30 37 23 24 -16 -23 -20zm323 55l15 13 79 -39 39 -38 -14 -13 -119 77zm-1555 -1129l-23 15 36 32 47 -29 -21 -32 -23 -8 -15 10 15 15 -16 -3zm601 530l-30 -27 -15 -13 -13 -26 21 -13 22 10 15 22 -22 15 30 27 -8 5zm-544 -153c39,22 22,11 62,6l0 -42 -62 36zm481 666l15 13c37,-20 13,-10 54,-12l-14 -37 -55 36zm-84 -26c34,-26 34,-25 9,-52 -34,26 -34,25 -9,52zm311 396l40 -26 -15 -13 -24 15 -38 -9 -57 -25 -7 8 -49 -59 -16 10 -48 31 -46 -2 -7 27 -47 -3 102 -69c35,-19 25,-5 55,-24 10,-7 3,-26 1,-36l-32 -13 -164 107 14 25 -39 38c-24,-18 -31,-27 -54,-12l-24 15 15 14 58 123 23 16 33 -75 -17 -7 -52 -18 32 -21 60 30 -15 11 22 20c19,17 20,14 39,21l13 37 62 6 -15 -14 16 -10 -37 -32 -24 3 16 -11 -30 -26 54 -1 139 36 -78 -58 48 -3 -23 -20 24 -15 1 8 68 -7 23 20 0 -12zm-323 -273l-15 -13 16 -11 15 13 16 -10 -36 -16 14 -27 -15 -14 -77 44 22 -7c18,27 4,27 14,36 21,19 24,12 46,5zm535 181l-155 105c-30,16 0,19 -27,37l-40 26 -15 -14 -22 15 12 25 95 -49 125 -84 57 -34c20,-14 6,-8 24,-27l-7 -7 -47 7zm-636 -161l-1 35c21,11 24,18 46,4l32 -20 -23 -20c-21,-19 -32,-14 -54,1zm-178 0l15 13 23 8 -47 31 4 -8 -111 -37 16 16 -48 4 -94 67 12 0c-6,5 -7,10 -7,14l-21 -9 -26 19 63 26 37 57 -31 -15 -16 11 61 52 -1 12 55 36 38 -27 55 -36 -96 -89 45 19 8 -17 98 51 63 -41 16 -11 63 -41 -22 -19 -119 77 -45 -28 24 -16 -38 -33 87 -2 52 14 16 -32 -91 -45 24 -15 -23 -20 -39 14zm434 443l15 13 32 -32 -15 -25 -47 31 15 13zm-1142 -1007l15 13 -26 27c-23,-18 -21,-14 -44,-16l32 -20 -8 -7 -31 9 32 -21 30 15zm541 661l31 37 -8 17 -62 -28 39 -26zm-177 -195l-5 -30 29 -9 23 20 -13 15 -34 4zm301 460l-39 37 30 27 7 -5 40 -26 0 0 -122 80 7 6 95 -50 31 -8 3 -2 20 38 25 -50 50 -51 30 27 24 -16 -45 -39 11 -1 -10 -53 -157 86zm-301 0l69 24 24 -2 -24 -21 -22 -20 -31 9 -16 10zm-727 -606l9 3 -8 5 -1 -8zm71 112l22 20 24 -15 -23 -20 -23 15zm178 230c33,18 27,17 61,6 -33,-24 -16,-22 -61,-6zm-83 -73c-2,8 -24,15 7,42 24,21 34,16 53,11l-60 -53zm-47 31l16 -22 -15 -14 -24 16 23 20zm3836 -2618l-29 19 -190 135 22 20c39,34 91,56 130,42l38 45c-41,22 -165,-24 -208,-49l-23 15 -23 -20 -142 93 -95 73 -71 46 -54 23 35 22 -38 27 -22 -20 -8 -7 -126 82 30 27 -16 10 45 40c43,-11 52,9 92,44l7 7 16 -10 24 -16 -37 -22 30 -20 -22 -20 38 -15 -21 -30 29 -8 -24 -44 27 19c31,27 45,38 81,34l-13 14 37 33 47 -19 8 -5 16 -10 15 13 -40 38 19 17 38 -18 -2 -23 31 -9 -23 -22 32 -7 8 -5 22 20 55 -47 40 22 -48 6 -7 14 -33 47 15 13 102 -67 16 -10 -46 -28 16 -10 -36 -57 -23 -20 14 -23 -20 -19c-21,-18 -12,-20 1,-35 21,12 25,10 45,28l23 20c30,26 42,40 29,61l52 47 274 -178 0 -65 -25 -22c26,-58 -25,-84 25,-120l0 -64 -159 -52zm-563 -187l-39 4 45 39 -16 11 23 19 -32 21 -5 38 79 64 37 44 -24 16 -45 -37 -115 -8 -61 -53c-23,4 -63,18 -78,28 -24,15 -41,33 -26,65l-30 -6 15 13 -16 11 41 33 -5 -48 49 29 -30 -3 27 39 11 -7 21 21 15 19 7 36 -24 15 -108 -90 -51 -7 -60 -48 -24 16 30 26 60 41c24,6 29,2 46,17l30 26c37,32 14,43 52,82l45 40 -24 15 -45 -40 -16 11 -22 -20 5 -9 -40 -16 19 23 -15 9 -53 -33 21 -61 -14 -4 -16 24 -35 -44 -138 -39 -24 16 15 13 -23 15 22 20 23 20 46 -7 -1 35 -7 29 -41 -7 -30 18 29 38 92 32 48 -18 -1 9 69 5 -23 26 22 19 7 6 22 32 24 -15 253 -165 -119 -118c-13,-11 -20,-7 -47,-28l32 -20 -23 -20 16 -10 53 46 39 21 6 19 22 20 32 -21 11 4 -24 51 -12 -4c15,21 6,18 22,32 25,21 91,-37 118,-54l39 -26 166 -96 -36 -68 -5 -34 -23 -51 -260 -86zm284 94l48 46 31 60 29 -9 60 -41 -168 -56zm339 687l15 14 23 8 -47 31 4 -8 -111 -38 16 17 -48 3 -94 68 69 -5 37 45 -8 16 -114 -52 -26 20 63 25 37 57 -31 -15 -16 11 61 53 -1 11 55 37 38 -28 55 -36 -96 -89 45 20 7 -18 99 51 63 -41 4 -2 0 -34 -66 42 -45 -28 24 -15 -38 -34 86 -2 39 11 0 -44 -61 -29 24 -16 -23 -19 -39 13zm-708 -564l15 14 -26 26c-23,-17 -21,-14 -44,-15l32 -21 -8 -7 -31 9 32 -20 30 14zm363 466l-4 -30 29 -9 22 20 -12 15 -35 4zm302 460l-40 38 30 26 8 -5 39 -26 34 64 26 -49 45 -46 0 -79 -142 77zm-301 1l69 24 24 -2 -24 -22 -22 -19 -31 9 -16 10zm-480 -388l30 -34c19,28 20,30 -9,53l-21 -19zm2 123c33,18 27,18 61,6 -33,-24 -16,-22 -61,-6zm-83 -73c-2,8 -24,15 6,42 25,22 35,16 54,11l-60 -53zm-1815 2546l16 -10 -46 -28 -15 10c-32,-24 -18,-23 -55,-10l54 33c35,-8 -4,-12 46,5zm-590 -399l30 26 14 -9 -20 -33 -24 16zm-490 -360l47 -31 -22 -20c-33,23 -40,24 -25,51zm960 883l71 -46 -22 -20 -71 46 22 20zm-255 -225c21,30 44,71 29,96l21 33 7 6 16 -10 24 -16 -46 -39 17 -34 -22 -32 -31 -13 -15 9 -23 -20 -8 5 -16 16 47 -1zm-145 -79l-30 -27 -15 11c-17,11 25,24 44,38l33 -9 -32 -13zm-906 -642l-25 -12 -51 -19 -16 10 53 47c19,-5 45,-1 62,17l51 58c38,20 15,15 10,-16 -4,-20 2,-22 -23,-44 -26,-23 -35,-22 -61,-41zm958 954l53 34 16 -10 -37 -31 -32 7zm-666 -672l-23 15 21 35 -59 -56 -150 97 -31 -3 7 19 -24 15c-17,12 -11,17 -17,35l101 53 6 -8 38 33 -24 23 -69 -8c-21,-13 -25,-11 -46,-28l-30 -27 -23 15 -31 -26 -167 106 -186 136 11 30 173 51 -4 8 -46 30 -24 -7 -23 -20 -171 -31 3 -9 -166 108 -32 21 -15 10 -127 82c16,22 5,17 22,32 58,50 103,-3 153,62l-32 20 -180 -86 -18 -4 -387 276c6,9 12,23 14,25 18,16 118,42 138,37l23 20 6 42 -13 3 -231 -71 -48 4 -118 77 -190 135 23 20c38,34 90,55 130,42l37 45c-41,22 -164,-25 -207,-50l-24 16 -22 -20 -94 61 363 166 191 -124 -15 -25 7 -17 -36 -33c27,-59 -26,-84 27,-121 66,58 7,79 73,137 26,23 141,-69 173,-90l197 -128 -22 -20 31 -20 -44 -107 46 -60c37,48 7,89 46,124 17,15 23,10 46,16l322 -224 -20 -18 23 -16 -30 -26 -15 -110 4 -38 24 -22 -14 23 13 12c22,-7 26,-14 47,5 6,5 6,97 4,101l45 39 348 -238 24 -27c-92,-81 -30,-110 -73,-174l40 -12 54 11c6,34 -20,92 19,126 18,15 28,16 46,5l129 -81 59 -54 -20 -32 40 -26 38 10 -13 -26 22 -15 7 -17 -51 -58 -29 -62 16 -10 -15 -13 26 -33 68 -5 38 33 -24 15 15 14 -26 15 -12 -25c-21,16 -32,20 -9,40l22 20c-19,31 25,59 66,95l222 -144 -38 -33 -71 46 -183 -103 -7 8 -68 -59zm206 326l52 46 24 -3c-24,-14 -54,-22 -22,-43l40 -26 7 7 -32 20c51,28 34,6 71,-22l-23 -20 16 -11 -15 -13 -55 36c-27,18 -36,15 -63,29zm524 511l24 -15 24 -20 -54 -7 15 14 -24 15 15 13zm-199 -43l15 -10 24 -15 -14 -66 -29 -33 32 -7 -38 -46c-2,-8 -11,-19 0,-25l87 -44c-28,1 -41,4 -70,23l-87 56c-35,23 76,110 48,154l32 13zm-413 -376l22 20 71 -46 15 25 16 -10c-61,-54 -57,-32 -124,11zm-698 -628l16 -10c-32,-29 -38,-32 -22,-55l-22 -20 -25 39 53 46zm-85 -2l-38 -21 -25 17 84 59c24,-28 18,-20 -21,-55zm787 731l39 10 23 -16 -15 -13 48 -31c-40,-10 -67,-21 -109,1l23 23 -54 -2 -46 -16c-34,-15 -116,39 -103,67l68 -49 11 1 7 38c53,41 75,13 108,-13zm416 282l-39 14 -97 -98 -46 -16 -278 166 -14 12 56 183 -16 10 -38 2 -31 -26 -42 -123c-87,57 -173,114 -260,170 -117,75 -85,93 -45,190l35 67 56 -22 22 19 40 -25 15 13 -16 11 38 21 -71 46 -22 -20 -28 15 -65 -36c-8,-32 -43,-42 -69,-77 -22,-30 -19,-61 -34,-74 -17,-15 -28,-16 -46,-5l-39 26 -222 156 -53 36 17 125 -38 -21 -31 9 -23 -20 -30 -27 -335 221 38 107 145 66 34 -86 -28 -39 -18 22 -96 -25 84 -17 69 3 -24 -28 63 -41 20 32 -45 30 184 53 47 27 30 -31 317 -217 -8 -7 -127 -49 -56 -39 9 -29 25 -38 31 -10 22 20 -39 26 24 12 198 39 15 13 48 -31 181 -118 95 -62c-37,-28 -84,-48 -122,-35l-38 -33 -48 17 -60 -28 -46 -46 54 4 72 -32c20,-10 16,-19 41,-31l60 -1 28 30 -21 -12 -64 45 225 72 354 -244 -24 -21 -110 85 -28 16 -32 -57 31 -21 -22 -20 -16 10 -19 -17 27 -22 52 28 72 -5 -76 -55 -17 11 -13 -26 24 -26 153 38 39 9 39 -14 22 20 71 -46 -45 -28 13 -35 -42 -27 16 -10 -15 -13 -24 15zm-126 82l39 -25 23 19c-49,31 -20,22 -62,6zm-1036 -477c44,47 -3,-3 22,43 -15,-2 -31,-3 -46,-4 27,-40 -18,1 24,-39zm100 -675l-27 46 17 18 47 -19 15 13 -155 105 -148 -69 -47 19 8 6 53 35 16 -10c38,33 124,77 169,66l72 122 -21 13 27 17 -45 -28 -118 -58c-56,8 -205,-131 -303,-71l-23 28 32 23 -48 4c-49,32 -9,25 35,63l17 -22 111 88 40 7 0 11 -62 -6 -47 10 -45 -28 -15 -13 -24 15 -153 -60 -37 37 20 19 -32 7 13 19c-40,-26 -38,-22 -74,0l120 94 16 -10 38 33c20,5 51,9 68,25 46,40 28,44 43,78l-99 -19c-48,-43 -94,-73 -145,-55l-67 -60 -32 21 -22 -20 -23 -20 -24 15c21,12 26,10 46,28l52 47 -6 6 -62 -42 -17 11 39 20 -22 15 13 26 38 33 -16 22 -22 8 -86 -19 -23 -14 -46 -4 -8 -7 7 36 24 -15 22 20 -24 15 8 7 31 -21 23 20 -8 17c-22,8 -26,5 -47,19 -30,20 -5,0 -17,22l-31 9 -52 -46 -26 17 85 59 16 -10 22 20c36,30 33,17 61,41 19,17 2,10 30,38l-24 16c-57,-43 -93,0 -168,-64l-24 16 -99 -51 -38 2 -62 -28 -23 14 30 38c-25,30 -13,25 29,62l2 36c27,10 -2,-11 27,14l45 40 -24 15c-21,14 -34,6 -54,1l-23 15 -16 11c-17,-18 -29,-74 -52,-59l-125 -41 -12 17 -24 -21 -9 29 39 47 -80 38 22 19c27,24 130,54 145,68l52 46 -15 10 23 21 -40 13 -38 -29 -69 -5 -29 -23 -40 -1c-33,-28 -35,-33 -69,-25l-45 -28 -21 3 20 33c-22,8 -26,5 -47,19l-34 21 -35 -46 -19 14 140 81 38 21c-42,22 -53,13 -93,-7 -47,-23 -49,-3 -92,-23l-62 6 45 40 -16 10 23 20 -32 21 -5 37 79 64 37 45 -23 16 -46 -37 -115 -9 -60 -53c-24,4 -64,19 -78,28 -25,16 -41,34 -27,65l-8 -1 13 6 0 -1 8 5 77 35 26 -17 -22 -20 16 -11 52 47 39 21 6 19 23 19 31 -20 11 4 -15 34 64 29c22,-13 43,-30 55,-38l40 -26 165 -96 -36 -69 -5 -33 -36 -78 85 81 31 60 30 -10 319 -215 39 -25 -45 -40 24 -16 -24 -31 33 -21 23 20c26,23 23,30 44,52l135 -88 86 -56 72 -46 79 -52 -35 -115 -14 -49 52 47 24 -16 38 34 -40 13 38 45 118 -77 16 -10 77 -53 160 -101 -39 -96 -12 2 12 -35 94 93 40 -26 102 -79 17 -33c24,-9 25,-5 38,-15l152 -109 -75 -66c21,-35 -15,-37 -45,-63l-30 -27 24 -15 22 20 -15 10 22 20 16 -10 30 26c17,15 10,19 14,37l68 59 113 -81 -84 -87 -50 -18 -96 -59 -31 5 -29 -24c-29,-26 -35,-25 -61,-18zm562 992c14,-11 32,-20 17,-34 -7,-5 -24,-7 -31,-2 -16,10 1,23 14,36l-61 -29 -3 -3 -26 -24 -99 -62c-72,5 -159,101 -229,132 -32,14 -191,114 -159,143 42,37 11,-17 69,24 -46,29 -80,13 -123,-23l-189 123 70 33 -18 13 -54 -33c-20,7 -24,4 -46,18l-110 72c-22,14 -18,17 -32,32l-16 10 19 36 -35 -25 -16 10c-30,5 -1,-11 -31,9l-181 118 60 53c-60,15 -65,-50 -116,-17l-47 31 -78 64 44 27 -30 -27c45,-24 40,-11 46,16l40 -37 15 13 -16 11 15 13 4 -8 57 26 47 -53 25 -27 39 8 -24 15 15 13 16 -10 22 20 25 -16 -39 -20 7 -10 -37 -17 32 -21 -22 -18 -25 0 94 -35 31 14 45 39 -29 -11 -26 59 16 -22c18,14 110,43 130,30l200 -132 -64 -27 39 -11 46 26 32 -20 16 -10 95 -62 -68 -60 122 17 167 -113 197 -128 39 -14 -6 -30 8 -5 149 -86 23 -28 -21 -19 5 18 -30 21 -15 -14zm-847 -565l23 20 24 -16 -23 -20 -24 16zm-302 24l69 37 31 -10 21 -7 -21 7 0 0c-23,-34 -11,-27 33,-56l-40 -34 -22 28c-33,-16 4,-19 -39,14l-23 -20 -10 11 1 30zm1345 1174l-23 -20 -142 93 25 20 33 -30 107 -63zm-694 -516l38 34c33,-28 23,0 9,-41 -23,-3 -22,-6 -47,7zm-934 -520l8 6 16 -10 -58 -66c-23,19 -27,28 -3,48 15,14 12,7 37,22zm1424 1171l-24 -21 -150 97 15 13 30 -22 129 -67zm-348 189l15 14 79 -40 39 -38 -14 -13 -119 77zm-322 -54l-23 -20 16 -11 -27 -23 -1 -4 13 -9 61 41 55 -36 100 15 -62 42 -214 150 -10 -60 23 -11 0 -9 -18 -9 16 -10 25 -4 8 -30 36 23 24 -16 -22 -19zm-1233 -1075l-23 15 36 32 48 -29 -21 -32 -23 -8 -16 10 15 15 -16 -3zm565 451l-21 13 12 26 15 13 30 27 8 -5 -30 -27 22 -15 -15 -22 -21 -10zm-507 -74l61 -36 0 42c-40,5 -23,16 -61,-6zm480 666l15 13c37,-20 13,-10 55,-12l-15 -37 -55 36zm-84 -26c34,-26 34,-25 9,-52 -33,26 -34,25 -9,52zm-12 123l-15 -13 16 -11 15 14 16 -11 -36 -16 14 -27 -15 -14 -76 44 21 -7c18,27 4,27 14,36 21,19 24,12 46,5zm535 181l-74 51 38 17 10 -7 56 -34c20,-14 6,-7 24,-27l-7 -7 -47 7zm-1584 -719l32 -9 7 7 -31 20c23,2 20,-2 44,16l25 -27 -15 -13 -30 -15 -32 21zm5382 -3128l16 -22 -15 -13 -24 15 23 20z"/>
    </g>
   </g>
  </g>
  <polygon class="fil3" points="14164,13548 18339,11689 18324,9008 14164,7795 10063,8948 10048,11689 "/>
  <path class="fil3 str0" d="M15527 11482l-56 77 15 17 160 -94 35 -60 -59 0 -95 60zm-2496 2507l0 36 36 0c-5,58 -44,71 -95,83 -31,42 -143,50 -143,83 0,27 10,26 24,48l47 0 119 -95 107 -71 123 -96 111 -25 -67 37 0 36 47 0c39,0 46,-34 60,-59l166 -96c39,-33 88,-93 154,-95l0 48c0,36 12,48 24,71 33,38 85,95 155,95l59 0c18,0 114,-60 131,-71l131 -83 225 -131 214 -131 120 -58 -25 -49 -107 36 -70 38c12,-52 5,-27 47,-50l0 -24 -179 60 -99 50 -182 88 -16 -55 -46 -155 189 -118 178 -119c99,-23 257,-164 381,-167l11 -23 -45 -50 -185 110 -2 -13 -17 -47 -47 14 -24 -38 -72 0c-96,64 -187,85 -249,178l-48 36 13 -107 -120 83 0 24 -47 0c-9,-100 -112,-119 -226,-119 -25,18 -303,71 -364,88 -82,22 -119,-4 -166,59 -47,62 -66,60 -148,79l108 -11c-25,92 -152,-9 -179,58 27,7 27,12 60,12l47 0c64,0 105,-35 143,-35 32,0 32,5 60,13l59 -34 95 -15 0 24 95 0c12,51 35,65 35,130l0 60c0,47 -89,67 -130,95l11 82 -95 25 -214 142 -178 119zm-558 -83l188 -65 6 14 -206 99 0 47 95 -35 5 32 161 -80c91,-21 150,-93 205,-105 71,-15 195,-36 211,-97l-35 0c12,-35 47,-59 95,-59l83 0 -8 -13 115 -59 0 -23 -214 13 -119 58 -72 -1 -47 36c-49,5 -26,12 -71,12 -28,0 -36,-8 -36,-35l0 -24c0,-45 112,-251 143,-273l0 -24c-89,7 -51,100 -119,119l0 -36c0,-27 164,-283 190,-322l380 -23 393 -12 178 12c19,0 36,-7 36,-23 0,-62 -81,-24 -143,-24l-131 0 0 -24c122,0 198,-12 321,-12 88,0 265,19 273,-59l-107 12 -95 -12 0 -24 143 3 250 -15 -1 -62 -47 15 -190 -1 -143 1c-43,0 -41,14 -83,23l0 -23 12 -12c-19,-47 -207,-36 -273,-36l0 -25 107 13 71 0c48,0 64,-19 84,-44l-167 8 -615 0 1 -56 79 -110 214 -226 24 -47 -60 0 -8 -9 91 -86c46,-13 47,-16 48,-72l35 -12 0 -35c0,-19 35,-58 48,-83l-119 59 0 -12c7,-81 135,-96 178,-178l-166 71 -1 -25 -23 13 -37 -2 -46 38 -71 83 -36 0 67 -64 -10 -13 -69 30 -71 107 -15 -51 -119 108 27 -57c-86,2 -130,89 -166,142l-107 107 0 24 -262 284 -368 25c-19,-12 -36,-16 -36,-48 0,-13 141,-145 155,-154l59 -71c61,-41 93,-98 164,-145 54,-36 151,-89 157,-164 -87,23 -300,230 -321,237l-3 -40 265 -197 23 -60 36 0c33,0 78,-64 166,-71 18,-16 109,-66 36,-95l-139 94 8 13 -35 0 0 -35 -73 9 80 -59 -7 -10c-89,0 -156,42 -191,95l-47 35 -1 -26 -47 15c-27,41 -39,47 -107,47l13 -23 -48 -1c-89,59 -204,165 -299,236 -82,62 -220,216 -331,216 -168,113 -285,300 -416,452l0 71c92,106 289,74 488,72 163,-3 361,-13 546,-13 -2,101 -178,269 -213,429 -21,92 -36,171 -63,258 -14,45 -81,203 -81,252l0 71c0,28 20,48 48,48l47 0c26,0 154,-60 167,-107l-54 -10 106 -56 67 -53zm2388 -475l-23 107c-2,65 -24,84 -24,154l0 60c0,27 20,47 47,47l36 0c20,0 72,-31 83,-47l107 -24 0 -48c0,-26 10,-26 26,-41l93 -30 5 56 78 -56c53,19 9,36 60,36 45,0 46,-55 107,-72l309 -142 107 -36 -1 -33 -59 -14 0 -23 60 -13c37,-3 42,-12 83,-12l47 0 0 -47c58,-2 79,-18 84,-72l-24 0 -107 48c-3,-32 -20,-72 -48,-72 -65,0 -212,179 -285,179 -33,0 -44,-19 -59,-36l11 -71c-4,-59 -23,-44 -23,-95 0,-32 17,-35 35,-48 0,-64 136,-300 167,-321 51,-76 269,-59 392,-59l380 0c39,0 32,35 95,35 39,0 9,-10 60,-23l0 -24 -36 0 0 -24c27,-6 27,-12 60,-12l23 0c83,0 136,36 214,36 53,0 84,-16 95,-60 -36,1 -107,31 -107,-11 0,-33 9,-29 36,-36l190 46 155 13c22,3 29,-11 47,-23l0 -60 -178 24 -36 0 -107 -13 0 -23 274 -20 0 -27 -179 0 -154 -12 -143 14c-76,7 74,-62 -95,-62l43 -66c-66,9 -62,34 -138,32 -53,-2 -83,-13 -154,-13 -101,0 -193,12 -309,12l-179 0 69 -162c63,-43 64,-90 143,-149 71,-53 109,-62 133,-165l-59 0 0 -35c50,-12 105,-33 118,-84l26 -42 69 -29 0 -35 -35 0c4,-56 26,-59 83,-60l83 -47c-6,-11 -8,-24 -24,-24 -79,0 -130,39 -178,72l-24 -13 0 -47 -83 59 -178 131c7,-87 121,-94 143,-155l-60 -11 -142 106 -24 24 -190 226c0,-96 98,-148 142,-214l-13 -23 -70 47 -131 142c-93,63 -165,172 -240,259 -157,180 -41,146 -330,146 -39,52 -190,70 -190,-12l0 -24c0,-41 48,-63 83,-71l107 -96c34,-54 11,-64 73,-104 58,-38 53,-30 96,-83 50,-60 178,-95 187,-181l-8 -11 -301 225 0 -24 238 -178c60,-69 115,-36 131,-95 28,-106 128,-57 128,-171l-69 40c-25,18 -59,17 -59,60l0 35 -60 12 -83 36 -59 24c-66,-26 26,-59 71,-60 -14,-53 -52,-44 -95,-24l-12 12 -71 83 -191 83c10,-109 257,-115 155,-154 -62,42 -122,33 -199,98 -61,52 -98,84 -164,133 -59,44 -115,86 -172,126 -63,44 -105,98 -166,130l-78 5 -88 90 0 24 -321 404 12 72 724 -15 286 3c32,0 32,5 59,12l-106 183 11 7c-91,10 -175,375 -202,475l-36 36zm-1438 285c42,-22 55,-14 60,-71l-24 0c-21,10 -59,12 -59,35 0,34 5,22 23,36zm2033 -83c6,10 7,24 23,24 39,0 151,-65 179,-84l46 0 13 -23c-2,-23 1,-48 -24,-48 -6,0 -219,119 -237,131zm1057 -1201l107 0 0 12 -107 12 0 -24zm-332 821c-43,22 -199,75 -223,97 -38,35 -17,57 -89,79 -57,17 -75,17 -101,68l104 -42 524 -180 -25 -34 -190 12zm-3126 23l36 -119 -35 -14c-8,88 -53,70 -60,133l59 0zm1343 -154c27,-52 66,-82 143,-83 -7,5 -135,81 -143,83zm1188 12c55,-5 176,-216 179,-250 -103,2 -158,160 -179,250zm-939 -155l0 36 60 0 -1 -47 -23 -13 -14 24 -22 0zm0 -131l-23 12 0 36 35 0 191 0 23 -13 0 -46 -226 11zm-808 -867c0,49 95,-26 95,-48 0,-36 -14,-33 -47,-35l-48 47 0 36zm-701 -131c1,26 -3,60 24,60 50,0 40,-42 59,-72 42,-28 105,-53 119,-107l-47 0c-35,0 -137,92 -155,119z"/>
  <path class="fil2" d="M15527 11482l-56 77 15 17 160 -94 35 -60 -59 0 -95 60zm-2496 2507l0 36 36 0c-5,58 -44,71 -95,83 -31,42 -143,50 -143,83 0,27 10,26 24,48l47 0 119 -95 107 -71 123 -96 111 -25 -67 37 0 36 47 0c39,0 46,-34 60,-59l166 -96c39,-33 88,-93 154,-95l0 48c0,36 12,48 24,71 33,38 85,95 155,95l59 0c18,0 114,-60 131,-71l131 -83 225 -131 214 -131 120 -58 -25 -49 -107 36 -70 38c12,-52 5,-27 47,-50l0 -24 -179 60 -99 50 -182 88 -16 -55 -46 -155 189 -118 178 -119c99,-23 257,-164 381,-167l11 -23 -45 -50 -185 110 -2 -13 -17 -47 -47 14 -24 -38 -72 0c-96,64 -187,85 -249,178l-48 36 13 -107 -120 83 0 24 -47 0c-9,-100 -112,-119 -226,-119 -25,18 -303,71 -364,88 -82,22 -119,-4 -166,59 -47,62 -66,60 -148,79l108 -11c-25,92 -152,-9 -179,58 27,7 27,12 60,12l47 0c64,0 105,-35 143,-35 32,0 32,5 60,13l59 -34 95 -15 0 24 95 0c12,51 35,65 35,130l0 60c0,47 -89,67 -130,95l11 82 -95 25 -214 142 -178 119zm-558 -83l188 -65 6 14 -206 99 0 47 95 -35 5 32 161 -80c91,-21 150,-93 205,-105 71,-15 195,-36 211,-97l-35 0c12,-35 47,-59 95,-59l83 0 -8 -13 115 -59 0 -23 -214 13 -119 58 -72 -1 -47 36c-49,5 -26,12 -71,12 -28,0 -36,-8 -36,-35l0 -24c0,-45 112,-251 143,-273l0 -24c-89,7 -51,100 -119,119l0 -36c0,-27 164,-283 190,-322l380 -23 393 -12 178 12c19,0 36,-7 36,-23 0,-62 -81,-24 -143,-24l-131 0 0 -24c122,0 198,-12 321,-12 88,0 265,19 273,-59l-107 12 -95 -12 0 -24 143 3 250 -15 -1 -62 -47 15 -190 -1 -143 1c-43,0 -41,14 -83,23l0 -23 12 -12c-19,-47 -207,-36 -273,-36l0 -25 107 13 71 0c48,0 64,-19 84,-44l-167 8 -615 0 1 -56 79 -110 214 -226 24 -47 -60 0 -8 -9 91 -86c46,-13 47,-16 48,-72l35 -12 0 -35c0,-19 35,-58 48,-83l-119 59 0 -12c7,-81 135,-96 178,-178l-166 71 -1 -25 -23 13 -37 -2 -46 38 -71 83 -36 0 67 -64 -10 -13 -69 30 -71 107 -15 -51 -119 108 27 -57c-86,2 -130,89 -166,142l-107 107 0 24 -262 284 -368 25c-19,-12 -36,-16 -36,-48 0,-13 141,-145 155,-154l59 -71c61,-41 93,-98 164,-145 54,-36 151,-89 157,-164 -87,23 -300,230 -321,237l-3 -40 265 -197 23 -60 36 0c33,0 78,-64 166,-71 18,-16 109,-66 36,-95l-139 94 8 13 -35 0 0 -35 -73 9 80 -59 -7 -10c-89,0 -156,42 -191,95l-47 35 -1 -26 -47 15c-27,41 -39,47 -107,47l13 -23 -48 -1c-89,59 -204,165 -299,236 -82,62 -220,216 -331,216 -168,113 -285,300 -416,452l0 71c92,106 289,74 488,72 163,-3 361,-13 546,-13 -2,101 -178,269 -213,429 -21,92 -36,171 -63,258 -14,45 -81,203 -81,252l0 71c0,28 20,48 48,48l47 0c26,0 154,-60 167,-107l-54 -10 106 -56 67 -53zm2388 -475l-23 107c-2,65 -24,84 -24,154l0 60c0,27 20,47 47,47l36 0c20,0 72,-31 83,-47l107 -24 0 -48c0,-26 10,-26 26,-41l93 -30 5 56 78 -56c53,19 9,36 60,36 45,0 46,-55 107,-72l309 -142 107 -36 -1 -33 -59 -14 0 -23 60 -13c37,-3 42,-12 83,-12l47 0 0 -47c58,-2 79,-18 84,-72l-24 0 -107 48c-3,-32 -20,-72 -48,-72 -65,0 -212,179 -285,179 -33,0 -44,-19 -59,-36l11 -71c-4,-59 -23,-44 -23,-95 0,-32 17,-35 35,-48 0,-64 136,-300 167,-321 51,-76 269,-59 392,-59l380 0c39,0 32,35 95,35 39,0 9,-10 60,-23l0 -24 -36 0 0 -24c27,-6 27,-12 60,-12l23 0c83,0 136,36 214,36 53,0 84,-16 95,-60 -36,1 -107,31 -107,-11 0,-33 9,-29 36,-36l190 46 155 13c22,3 29,-11 47,-23l0 -60 -178 24 -36 0 -107 -13 0 -23 274 -20 0 -27 -179 0 -154 -12 -143 14c-76,7 74,-62 -95,-62l43 -66c-66,9 -62,34 -138,32 -53,-2 -83,-13 -154,-13 -101,0 -193,12 -309,12l-179 0 69 -162c63,-43 64,-90 143,-149 71,-53 109,-62 133,-165l-59 0 0 -35c50,-12 105,-33 118,-84l26 -42 69 -29 0 -35 -35 0c4,-56 26,-59 83,-60l83 -47c-6,-11 -8,-24 -24,-24 -79,0 -130,39 -178,72l-24 -13 0 -47 -83 59 -178 131c7,-87 121,-94 143,-155l-60 -11 -142 106 -24 24 -190 226c0,-96 98,-148 142,-214l-13 -23 -70 47 -131 142c-93,63 -165,172 -240,259 -157,180 -41,146 -330,146 -39,52 -190,70 -190,-12l0 -24c0,-41 48,-63 83,-71l107 -96c34,-54 11,-64 73,-104 58,-38 53,-30 96,-83 50,-60 178,-95 187,-181l-8 -11 -301 225 0 -24 238 -178c60,-69 115,-36 131,-95 28,-106 128,-57 128,-171l-69 40c-25,18 -59,17 -59,60l0 35 -60 12 -83 36 -59 24c-66,-26 26,-59 71,-60 -14,-53 -52,-44 -95,-24l-12 12 -71 83 -191 83c10,-109 257,-115 155,-154 -62,42 -122,33 -199,98 -61,52 -98,84 -164,133 -59,44 -115,86 -172,126 -63,44 -105,98 -166,130l-78 5 -88 90 0 24 -321 404 12 72 724 -15 286 3c32,0 32,5 59,12l-106 183 11 7c-91,10 -175,375 -202,475l-36 36zm-1438 285c42,-22 55,-14 60,-71l-24 0c-21,10 -59,12 -59,35 0,34 5,22 23,36zm2033 -83c6,10 7,24 23,24 39,0 151,-65 179,-84l46 0 13 -23c-2,-23 1,-48 -24,-48 -6,0 -219,119 -237,131zm1057 -1201l107 0 0 12 -107 12 0 -24zm-332 821c-43,22 -199,75 -223,97 -38,35 -17,57 -89,79 -57,17 -75,17 -101,68l104 -42 524 -180 -25 -34 -190 12zm-3126 23l36 -119 -35 -14c-8,88 -53,70 -60,133l59 0zm1343 -154c27,-52 66,-82 143,-83 -7,5 -135,81 -143,83zm1188 12c55,-5 176,-216 179,-250 -103,2 -158,160 -179,250zm-939 -155l0 36 60 0 -1 -47 -23 -13 -14 24 -22 0zm0 -131l-23 12 0 36 35 0 191 0 23 -13 0 -46 -226 11zm-808 -867c0,49 95,-26 95,-48 0,-36 -14,-33 -47,-35l-48 47 0 36zm-701 -131c1,26 -3,60 24,60 50,0 40,-42 59,-72 42,-28 105,-53 119,-107l-47 0c-35,0 -137,92 -155,119z"/>
  <path class="fil4 str1" d="M13032 7672l187 -575 -1550 0c-32,0 -72,12 -119,36 -48,25 -96,54 -143,88 -48,34 -90,71 -127,110 -36,39 -59,75 -69,106l-132 403c-10,32 -9,68 2,109 11,40 28,78 51,113 23,36 51,65 84,90 33,24 66,37 97,37l737 0 -4 14 -1084 0 -187 575 1553 0c32,0 72,-11 119,-34 48,-24 95,-53 141,-88 47,-36 88,-73 125,-112 37,-39 60,-75 70,-106l154 -477c14,-41 10,-90 -13,-146 -24,-56 -56,-104 -97,-143l205 0zm139 -539l-165 502 -1081 0 -3 11 773 0c29,0 58,11 86,33 28,22 52,50 73,83 21,33 36,67 46,102 10,36 10,68 0,97l-154 477c-10,27 -31,58 -64,93 -33,35 -70,69 -112,101 -41,32 -83,58 -124,79 -42,20 -77,31 -107,31l-1513 0 165 -502 1085 0 29 -88 -777 0c-29,0 -58,-11 -86,-33 -28,-22 -53,-49 -75,-81 -22,-31 -38,-66 -48,-102 -10,-37 -10,-69 0,-96l132 -403c10,-26 31,-58 64,-93 33,-35 70,-68 112,-99 42,-30 83,-57 125,-79 41,-22 77,-33 106,-33l1513 0zm-231 411l103 -315 -1418 0c-20,0 -44,7 -73,22 -30,14 -58,32 -87,53 -28,20 -53,43 -75,67 -22,25 -36,47 -44,66l-131 403c-8,20 -8,43 0,68 7,26 18,50 32,72 15,22 32,41 52,56 19,16 39,24 58,24l872 0 -88 271 -1084 0 -103 315 1418 0c20,0 44,-7 74,-22 29,-14 58,-32 86,-53 28,-20 53,-43 75,-67 22,-25 36,-47 44,-66l154 -477c7,-19 8,-42 1,-67 -6,-26 -16,-50 -31,-72 -14,-22 -31,-41 -51,-57 -20,-16 -39,-23 -59,-23l-868 0 62 -198 1081 0zm1957 128l187 -575 -1550 0c-32,0 -72,12 -119,36 -48,25 -96,54 -143,88 -48,34 -90,71 -127,110 -36,39 -59,75 -69,106l-132 403c-10,32 -9,68 2,109 11,40 28,78 51,113 23,36 51,65 84,90 33,24 66,37 97,37l737 0 -4 14 -1084 0 -187 575 1553 0c32,0 72,-11 119,-34 48,-24 95,-53 141,-88 47,-36 88,-73 125,-112 37,-39 60,-75 70,-106l153 -477c15,-41 11,-90 -12,-146 -24,-56 -56,-104 -97,-143l205 0zm139 -539l-165 502 -1081 0 -3 11 773 0c29,0 58,11 86,33 28,22 52,50 73,83 21,33 36,67 46,102 10,36 10,68 0,97l-154 477c-10,27 -31,58 -64,93 -33,35 -70,69 -112,101 -41,32 -83,58 -125,79 -41,20 -76,31 -106,31l-1513 0 165 -502 1084 0 30 -88 -777 0c-29,0 -58,-11 -86,-33 -28,-22 -53,-49 -75,-81 -22,-31 -38,-66 -48,-102 -10,-37 -10,-69 0,-96l132 -403c10,-26 31,-58 64,-93 33,-35 70,-68 112,-99 41,-30 83,-57 124,-79 42,-22 77,-33 107,-33l1513 0zm-231 411l103 -315 -1418 0c-20,0 -44,7 -74,22 -29,14 -58,32 -86,53 -28,20 -53,43 -75,67 -22,25 -36,47 -44,66l-132 403c-7,20 -7,43 0,68 8,26 19,50 33,72 15,22 32,41 52,56 19,16 39,24 58,24l872 0 -88 271 -1084 0 -103 315 1418 0c20,0 44,-7 73,-22 30,-14 58,-32 87,-53 28,-20 53,-43 75,-67 22,-25 36,-47 44,-66l154 -477c7,-19 7,-42 1,-67 -6,-26 -16,-50 -31,-72 -14,-22 -32,-41 -51,-57 -20,-16 -39,-23 -59,-23l-868 0 62 -198 1081 0z"/>
  <path class="fil5 str2" d="M13032 7672l187 -575 -1550 0c-32,0 -72,12 -119,36 -48,25 -96,54 -143,88 -48,34 -90,71 -127,110 -36,39 -59,75 -69,106l-132 403c-10,32 -9,68 2,109 11,40 28,78 51,113 23,36 51,65 84,90 33,24 66,37 97,37l737 0 -4 14 -1084 0 -187 575 1553 0c32,0 72,-11 119,-34 48,-24 95,-53 141,-88 47,-36 88,-73 125,-112 37,-39 60,-75 70,-106l154 -477c14,-41 10,-90 -13,-146 -24,-56 -56,-104 -97,-143l205 0zm139 -539l-165 502 -1081 0 -3 11 773 0c29,0 58,11 86,33 28,22 52,50 73,83 21,33 36,67 46,102 10,36 10,68 0,97l-154 477c-10,27 -31,58 -64,93 -33,35 -70,69 -112,101 -41,32 -83,58 -124,79 -42,20 -77,31 -107,31l-1513 0 165 -502 1085 0 29 -88 -777 0c-29,0 -58,-11 -86,-33 -28,-22 -53,-49 -75,-81 -22,-31 -38,-66 -48,-102 -10,-37 -10,-69 0,-96l132 -403c10,-26 31,-58 64,-93 33,-35 70,-68 112,-99 42,-30 83,-57 125,-79 41,-22 77,-33 106,-33l1513 0zm-231 411l103 -315 -1418 0c-20,0 -44,7 -73,22 -30,14 -58,32 -87,53 -28,20 -53,43 -75,67 -22,25 -36,47 -44,66l-131 403c-8,20 -8,43 0,68 7,26 18,50 32,72 15,22 32,41 52,56 19,16 39,24 58,24l872 0 -88 271 -1084 0 -103 315 1418 0c20,0 44,-7 74,-22 29,-14 58,-32 86,-53 28,-20 53,-43 75,-67 22,-25 36,-47 44,-66l154 -477c7,-19 8,-42 1,-67 -6,-26 -16,-50 -31,-72 -14,-22 -31,-41 -51,-57 -20,-16 -39,-23 -59,-23l-868 0 62 -198 1081 0zm1957 128l187 -575 -1550 0c-32,0 -72,12 -119,36 -48,25 -96,54 -143,88 -48,34 -90,71 -127,110 -36,39 -59,75 -69,106l-132 403c-10,32 -9,68 2,109 11,40 28,78 51,113 23,36 51,65 84,90 33,24 66,37 97,37l737 0 -4 14 -1084 0 -187 575 1553 0c32,0 72,-11 119,-34 48,-24 95,-53 141,-88 47,-36 88,-73 125,-112 37,-39 60,-75 70,-106l153 -477c15,-41 11,-90 -12,-146 -24,-56 -56,-104 -97,-143l205 0zm139 -539l-165 502 -1081 0 -3 11 773 0c29,0 58,11 86,33 28,22 52,50 73,83 21,33 36,67 46,102 10,36 10,68 0,97l-154 477c-10,27 -31,58 -64,93 -33,35 -70,69 -112,101 -41,32 -83,58 -125,79 -41,20 -76,31 -106,31l-1513 0 165 -502 1084 0 30 -88 -777 0c-29,0 -58,-11 -86,-33 -28,-22 -53,-49 -75,-81 -22,-31 -38,-66 -48,-102 -10,-37 -10,-69 0,-96l132 -403c10,-26 31,-58 64,-93 33,-35 70,-68 112,-99 41,-30 83,-57 124,-79 42,-22 77,-33 107,-33l1513 0zm-231 411l103 -315 -1418 0c-20,0 -44,7 -74,22 -29,14 -58,32 -86,53 -28,20 -53,43 -75,67 -22,25 -36,47 -44,66l-132 403c-7,20 -7,43 0,68 8,26 19,50 33,72 15,22 32,41 52,56 19,16 39,24 58,24l872 0 -88 271 -1084 0 -103 315 1418 0c20,0 44,-7 73,-22 30,-14 58,-32 87,-53 28,-20 53,-43 75,-67 22,-25 36,-47 44,-66l154 -477c7,-19 7,-42 1,-67 -6,-26 -16,-50 -31,-72 -14,-22 -32,-41 -51,-57 -20,-16 -39,-23 -59,-23l-868 0 62 -198 1081 0z"/>
  <path class="fil4 str1" d="M9659 11742l36 -418 199 -46 -36 418 -199 46zm777 0l68 -781c1,-25 -5,-51 -20,-78 -15,-28 -34,-53 -57,-75 -23,-22 -48,-39 -75,-51 -28,-13 -53,-16 -76,-11l-882 204c-23,6 -50,21 -81,47 -30,26 -60,56 -89,89 -29,33 -54,67 -74,102 -20,34 -31,64 -33,89l-68 781c-1,25 5,51 20,79 15,27 34,52 57,74 23,22 49,39 77,51 28,13 54,16 77,11l882 -205c23,-5 50,-20 81,-45 31,-25 60,-55 88,-88 28,-34 52,-68 72,-103 20,-35 31,-65 33,-90zm41 -774l-68 780c-2,22 -13,48 -31,80 -18,31 -39,62 -64,92 -25,31 -51,57 -78,79 -27,22 -51,36 -73,41l-881 204c-22,5 -44,2 -69,-9 -24,-12 -46,-27 -67,-47 -21,-20 -37,-42 -51,-66 -13,-24 -18,-48 -16,-71l67 -781c3,-21 13,-47 32,-79 18,-31 39,-62 64,-91 26,-30 52,-56 78,-79 27,-23 51,-37 72,-42l882 -204c21,-5 44,-2 69,9 24,11 46,27 67,47 20,19 37,41 50,66 14,24 19,47 17,71zm-807 333l-39 475 254 -59 40 -475 -255 59zm737 -317c3,-14 -1,-30 -11,-47 -9,-18 -21,-33 -36,-47 -14,-13 -30,-24 -47,-33 -17,-8 -33,-10 -47,-7l-882 204c-14,3 -31,13 -49,29 -19,15 -37,33 -54,53 -17,20 -32,41 -44,62 -12,22 -19,41 -21,56l-67 781c-2,15 1,32 11,48 9,17 21,32 36,46 14,13 30,24 47,32 17,9 32,11 47,8l881 -204c15,-4 31,-13 50,-29 19,-16 37,-33 54,-53 17,-20 32,-41 44,-63 12,-21 19,-40 21,-55l67 -781zm-458 789l-394 91 52 -619 394 -91 -52 619zm1075 -359l662 -153 35 -407 115 -26 40 -453 -1118 259c-23,6 -50,21 -81,47 -30,26 -60,56 -89,89 -29,33 -54,67 -74,101 -20,35 -31,65 -33,90l-92 1055 595 -138 40 -464zm669 -573l-33 395 -659 152 -42 467 -538 125 89 -1026c3,-21 13,-48 31,-79 19,-32 40,-62 65,-91 26,-30 52,-56 78,-79 27,-23 51,-37 72,-42l1091 -253 -36 395 -777 180 0 9 659 -153zm-795 955l73 -867 777 -180 21 -248 -1021 237c-14,3 -31,13 -49,29 -19,15 -37,33 -54,53 -17,20 -32,41 -45,63 -13,21 -21,40 -23,56l-81 950 402 -93zm698 -616l22 -248 -603 140 -22 247 603 -139zm776 -78l661 -154 36 -406 115 -27 39 -452 -1117 259c-23,5 -50,21 -81,47 -31,26 -60,55 -89,88 -29,33 -54,67 -74,102 -20,35 -31,65 -33,90l-92 1054 595 -138 40 -463zm669 -573l-33 394 -659 153 -42 467 -538 125 89 -1026c3,-22 13,-48 31,-79 18,-32 40,-62 65,-92 26,-29 51,-55 78,-78 27,-24 51,-38 72,-43l1091 -252 -36 395 -777 180 -1 8 660 -152zm-796 955l73 -867 778 -180 21 -248 -1021 237c-14,3 -31,12 -50,28 -19,16 -37,34 -54,54 -17,20 -32,40 -44,62 -13,22 -21,41 -23,56l-81 951 401 -93zm699 -617l22 -248 -603 140 -22 248 603 -140zm1855 -305c2,-1 2,-2 2,-4l-1 9 -1 -5zm-715 -699l-115 1323 595 -138 37 -426 198 -46 -54 619 595 -138 60 -668c3,-44 -1,-82 -12,-112 -11,-31 -24,-57 -41,-80 21,-31 40,-64 57,-100 17,-36 27,-70 29,-103l15 -176c2,-25 -4,-51 -19,-79 -15,-27 -34,-52 -57,-75 -24,-23 -49,-41 -76,-53 -28,-13 -53,-16 -76,-11l-1136 263zm-83 1287l110 -1265 1107 -256c21,-5 44,-2 69,9 24,12 46,28 67,48 21,21 38,44 51,69 14,25 19,48 17,69l-16 176c-2,33 -13,68 -32,105 -20,38 -42,72 -67,104 20,19 37,43 51,73 15,31 20,68 15,113l-56 637 -538 125 51 -608 -8 -10 -244 57 -39 430 -538 124zm613 -986l-1 9 254 -59 1 -9 -254 59zm-441 -220l-95 1115 400 -92 74 -862 394 -91 -14 158 -338 79 -24 273 268 -62c20,-4 34,2 44,18 5,5 9,14 13,28 4,14 6,23 5,25l-46 533 399 -93 50 -562c4,-56 -7,-98 -33,-126 -27,-29 -52,-45 -78,-49 11,-8 26,-20 43,-36 17,-17 32,-35 46,-55 14,-20 27,-41 38,-64 11,-22 16,-44 17,-65l16 -175c2,-16 -2,-32 -12,-50 -9,-18 -21,-33 -36,-47 -14,-13 -30,-24 -48,-32 -18,-8 -33,-11 -46,-8l-1037 240zm1797 335l36 -418 212 -49 -36 418 -212 49zm790 -2l68 -781c1,-25 -5,-51 -20,-79 -15,-28 -34,-52 -57,-74 -23,-22 -48,-40 -75,-52 -28,-13 -53,-16 -76,-11l-898 208c-23,6 -50,21 -81,47 -30,26 -60,56 -89,89 -29,33 -54,67 -74,102 -20,34 -31,64 -33,89l-68 781c-1,25 5,51 20,79 15,27 34,52 57,74 23,22 49,39 77,51 28,13 54,16 77,11l898 -208c23,-6 50,-21 81,-46 31,-25 60,-54 88,-88 28,-34 52,-68 72,-103 20,-35 31,-65 33,-89zm41 -775l-68 781c-2,21 -13,47 -31,79 -18,31 -39,62 -64,93 -25,30 -51,56 -78,78 -27,23 -51,36 -72,41l-898 208c-22,5 -44,2 -69,-9 -24,-12 -46,-27 -67,-47 -21,-20 -37,-42 -51,-66 -13,-24 -18,-48 -16,-71l67 -781c3,-21 13,-47 32,-79 18,-31 39,-62 65,-91 25,-30 51,-56 77,-79 27,-23 51,-37 72,-42l898 -208c22,-5 44,-2 69,9 24,12 46,27 67,47 20,20 37,42 50,66 14,24 19,48 17,71zm-823 337l-39 475 268 -62 39 -475 -268 62zm753 -321c3,-14 -1,-29 -11,-47 -9,-17 -21,-33 -36,-46 -14,-14 -30,-25 -47,-33 -17,-9 -33,-11 -47,-8l-898 208c-14,4 -31,13 -49,29 -19,15 -37,33 -54,53 -17,20 -32,41 -44,62 -12,22 -19,41 -21,56l-67 781c-2,16 1,32 11,48 9,17 21,32 36,46 14,13 30,24 47,32 17,9 33,11 47,8l897 -208c15,-3 31,-13 50,-29 19,-15 37,-33 54,-53 17,-20 32,-41 44,-62 12,-22 19,-41 21,-56l67 -781zm-460 790l-405 94 51 -619 405 -94 -51 619zm1179 -649l33 -140 2 -1 11 131 -46 10zm84 424l26 271 601 -139 -85 -1011c0,-6 -1,-14 -3,-25 -5,-23 -17,-47 -35,-71 -18,-24 -38,-45 -60,-64 -22,-18 -46,-32 -72,-42 -26,-10 -49,-13 -71,-8l-611 142c-21,5 -47,20 -78,45 -31,25 -62,54 -91,87 -30,33 -56,68 -78,103 -22,35 -34,65 -36,90l-268 1098 601 -139 67 -292 193 -45zm55 236l-29 -270 -236 54 -70 294 -547 126 262 -1077 1 5c4,-23 16,-50 36,-81 20,-31 43,-61 70,-90 26,-29 53,-54 79,-76 27,-22 50,-36 67,-40l611 -141c18,-5 38,-3 61,5 23,8 44,20 65,36 20,16 39,34 55,55 16,21 27,42 32,63 2,9 2,20 1,31l2 -15 81 995 -541 126zm-126 -824l-44 200 107 -25 -12 -186 -51 11zm-260 840l207 -898 169 -39 19 326 -209 48 -54 256 292 -68 26 271 399 -93 -75 -909c1,-4 1,-11 -2,-22 -3,-14 -10,-28 -21,-43 -11,-14 -24,-27 -39,-38 -14,-10 -30,-18 -46,-24 -17,-6 -31,-7 -44,-4l-611 141c-14,4 -30,13 -49,29 -19,16 -38,34 -56,54 -18,20 -33,41 -47,63 -14,22 -22,41 -24,56l-240 988 405 -94zm1527 -696l36 -417 64 -15 72 393 -172 39zm-636 591l1171 -271c23,-6 50,-21 80,-47 31,-26 60,-56 88,-91 28,-35 52,-71 73,-107 20,-37 32,-69 35,-96l-115 -753 -2 4c-3,-24 -14,-48 -31,-72 -17,-25 -36,-46 -59,-66 -22,-19 -46,-34 -72,-44 -26,-10 -49,-12 -71,-7l-983 228 -114 1322zm1172 -300l-1141 265 110 -1266 954 -221c20,-4 42,-2 66,8 23,9 45,23 66,41 20,18 37,38 52,61 15,23 23,46 24,68l116 744c-2,23 -12,51 -30,83 -18,33 -39,64 -64,94 -25,31 -52,57 -79,81 -28,23 -52,37 -74,42zm-525 -731l-39 475 235 -54 -81 -448 -115 27zm282 471l-341 79 -21 248 613 -142c15,-3 31,-13 50,-29 19,-15 37,-33 54,-53 17,-20 32,-41 44,-62 12,-22 19,-41 21,-56l-116 -744c2,-16 -2,-32 -12,-48 -9,-17 -21,-31 -36,-44 -16,-12 -32,-22 -50,-30 -17,-7 -33,-9 -48,-5l-884 205 -95 1114 402 -93 73 -867 239 -55 107 582z"/>
  <path class="fil5" d="M9659 11742l36 -418 199 -46 -36 418 -199 46zm777 0l68 -781c1,-25 -5,-51 -20,-78 -15,-28 -34,-53 -57,-75 -23,-22 -48,-39 -75,-51 -28,-13 -53,-16 -76,-11l-882 204c-23,6 -50,21 -81,47 -30,26 -60,56 -89,89 -29,33 -54,67 -74,102 -20,34 -31,64 -33,89l-68 781c-1,25 5,51 20,79 15,27 34,52 57,74 23,22 49,39 77,51 28,13 54,16 77,11l882 -205c23,-5 50,-20 81,-45 31,-25 60,-55 88,-88 28,-34 52,-68 72,-103 20,-35 31,-65 33,-90zm41 -774l-68 780c-2,22 -13,48 -31,80 -18,31 -39,62 -64,92 -25,31 -51,57 -78,79 -27,22 -51,36 -73,41l-881 204c-22,5 -44,2 -69,-9 -24,-12 -46,-27 -67,-47 -21,-20 -37,-42 -51,-66 -13,-24 -18,-48 -16,-71l67 -781c3,-21 13,-47 32,-79 18,-31 39,-62 64,-91 26,-30 52,-56 78,-79 27,-23 51,-37 72,-42l882 -204c21,-5 44,-2 69,9 24,11 46,27 67,47 20,19 37,41 50,66 14,24 19,47 17,71zm-807 333l-39 475 254 -59 40 -475 -255 59zm737 -317c3,-14 -1,-30 -11,-47 -9,-18 -21,-33 -36,-47 -14,-13 -30,-24 -47,-33 -17,-8 -33,-10 -47,-7l-882 204c-14,3 -31,13 -49,29 -19,15 -37,33 -54,53 -17,20 -32,41 -44,62 -12,22 -19,41 -21,56l-67 781c-2,15 1,32 11,48 9,17 21,32 36,46 14,13 30,24 47,32 17,9 32,11 47,8l881 -204c15,-4 31,-13 50,-29 19,-16 37,-33 54,-53 17,-20 32,-41 44,-63 12,-21 19,-40 21,-55l67 -781zm-458 789l-394 91 52 -619 394 -91 -52 619zm1075 -359l662 -153 35 -407 115 -26 40 -453 -1118 259c-23,6 -50,21 -81,47 -30,26 -60,56 -89,89 -29,33 -54,67 -74,101 -20,35 -31,65 -33,90l-92 1055 595 -138 40 -464zm669 -573l-33 395 -659 152 -42 467 -538 125 89 -1026c3,-21 13,-48 31,-79 19,-32 40,-62 65,-91 26,-30 52,-56 78,-79 27,-23 51,-37 72,-42l1091 -253 -36 395 -777 180 0 9 659 -153zm-795 955l73 -867 777 -180 21 -248 -1021 237c-14,3 -31,13 -50,29 -18,15 -36,33 -53,53 -17,20 -32,41 -45,63 -13,21 -21,40 -23,56l-81 950 402 -93zm698 -616l22 -248 -603 140 -22 247 603 -139zm776 -78l661 -154 36 -406 115 -27 39 -452 -1117 259c-23,5 -50,21 -81,47 -31,26 -60,55 -89,88 -29,33 -54,67 -74,102 -20,35 -31,65 -33,90l-92 1054 595 -138 40 -463zm669 -573l-33 394 -659 153 -42 467 -538 125 89 -1026c3,-22 13,-48 31,-79 18,-32 40,-62 65,-92 26,-29 51,-55 78,-78 27,-24 51,-38 72,-43l1091 -252 -36 395 -777 180 -1 8 660 -152zm-796 955l73 -867 778 -180 21 -248 -1021 237c-14,3 -31,12 -50,28 -19,16 -37,34 -54,54 -17,20 -32,40 -44,62 -13,22 -21,41 -23,56l-81 951 401 -93zm699 -617l22 -248 -603 140 -22 248 603 -140zm1855 -305c2,-1 2,-2 2,-4l-1 9 -1 -5zm-715 -699l-115 1323 595 -138 37 -426 198 -46 -54 619 595 -138 60 -668c3,-44 -1,-82 -12,-112 -11,-31 -24,-57 -41,-80 21,-31 40,-64 57,-100 17,-36 27,-70 29,-103l15 -176c2,-25 -4,-51 -19,-79 -15,-27 -34,-52 -57,-75 -24,-23 -49,-41 -76,-53 -28,-13 -53,-16 -76,-11l-1136 263zm-83 1287l110 -1265 1107 -256c21,-5 44,-2 69,9 24,12 46,28 67,48 21,21 38,44 51,69 14,25 19,48 17,69l-16 176c-2,33 -13,68 -32,105 -20,38 -42,72 -67,104 20,19 37,43 51,73 15,31 20,68 15,113l-56 637 -538 125 51 -608 -8 -10 -244 57 -39 430 -538 124zm613 -986l-1 9 254 -59 1 -9 -254 59zm-441 -220l-95 1115 400 -92 74 -862 394 -91 -14 158 -338 79 -24 273 268 -62c20,-4 34,2 44,18 5,5 9,14 13,28 4,14 6,23 5,25l-46 533 399 -93 50 -562c4,-56 -7,-98 -33,-126 -27,-29 -52,-45 -78,-49 11,-8 26,-20 43,-36 17,-17 32,-35 46,-55 14,-20 27,-42 38,-64 11,-22 16,-44 17,-65l16 -175c2,-16 -2,-32 -12,-50 -9,-18 -21,-33 -36,-47 -14,-13 -30,-24 -48,-32 -18,-8 -33,-11 -46,-8l-1037 240zm1797 335l36 -418 212 -49 -36 418 -212 49zm790 -2l68 -781c2,-25 -5,-51 -20,-79 -15,-28 -34,-52 -57,-74 -23,-22 -48,-40 -75,-52 -28,-13 -53,-16 -76,-11l-898 208c-23,6 -50,21 -81,47 -30,26 -60,56 -89,89 -29,33 -54,67 -74,102 -20,34 -31,64 -33,89l-67 781c-2,25 4,51 19,79 15,27 34,52 57,74 23,22 49,39 77,51 28,13 54,16 77,11l898 -208c23,-6 50,-21 81,-46 31,-25 60,-54 88,-88 28,-34 52,-68 72,-103 20,-35 31,-65 33,-89zm41 -775l-68 781c-2,21 -13,47 -31,79 -18,31 -39,62 -64,93 -25,30 -51,56 -78,78 -27,23 -51,36 -72,41l-898 208c-22,5 -44,2 -69,-9 -24,-12 -46,-27 -67,-47 -21,-20 -37,-42 -51,-66 -13,-24 -18,-48 -16,-71l67 -781c3,-21 13,-47 32,-79 18,-31 39,-62 65,-91 25,-30 51,-56 77,-79 27,-23 51,-37 72,-42l898 -208c22,-5 44,-2 69,9 24,12 46,27 67,47 20,20 37,42 50,66 14,24 19,48 17,71zm-823 337l-39 475 268 -62 39 -475 -268 62zm753 -321c3,-14 -1,-29 -11,-47 -9,-17 -21,-33 -36,-46 -14,-14 -30,-25 -47,-33 -17,-9 -33,-11 -47,-8l-898 208c-14,4 -30,13 -49,29 -19,15 -37,33 -54,53 -17,20 -32,41 -44,62 -12,22 -19,41 -21,56l-67 781c-2,16 1,32 11,48 9,17 21,32 36,46 14,13 30,24 47,32 17,9 33,11 47,8l897 -208c15,-3 31,-13 50,-29 19,-15 37,-33 54,-53 17,-20 32,-41 44,-62 12,-22 19,-41 21,-56l67 -781zm-460 790l-405 94 51 -619 405 -94 -51 619zm1179 -649l33 -140 2 -1 11 131 -46 10zm84 424l26 271 601 -139 -85 -1011c0,-6 -1,-14 -3,-25 -5,-23 -17,-47 -35,-71 -18,-24 -38,-45 -60,-64 -22,-18 -46,-32 -72,-42 -26,-10 -49,-13 -71,-8l-611 142c-21,5 -47,20 -78,45 -31,25 -62,54 -91,87 -30,33 -56,68 -78,103 -22,35 -34,65 -36,90l-268 1098 601 -139 67 -292 193 -45zm55 236l-29 -270 -236 54 -70 294 -547 126 262 -1077 1 5c4,-23 16,-50 36,-81 20,-31 43,-61 70,-90 26,-29 53,-54 79,-76 27,-22 50,-36 67,-40l611 -141c18,-5 38,-3 61,5 23,8 44,20 65,36 20,16 39,34 55,55 16,21 27,42 32,63 2,9 2,20 1,31l2 -15 81 995 -541 126zm-126 -824l-44 200 107 -25 -12 -186 -51 11zm-260 840l207 -898 169 -39 19 326 -209 48 -54 256 292 -68 26 271 399 -93 -75 -909c1,-4 1,-11 -2,-22 -3,-14 -10,-28 -21,-43 -11,-14 -24,-27 -39,-38 -14,-10 -30,-18 -46,-24 -17,-6 -31,-7 -44,-4l-611 141c-14,4 -30,13 -49,29 -19,16 -38,34 -56,54 -18,20 -33,41 -47,63 -14,22 -22,41 -24,56l-240 988 405 -94zm1527 -696l36 -417 64 -15 72 393 -172 39zm-636 591l1171 -271c23,-6 50,-21 80,-47 31,-26 60,-56 88,-91 28,-35 52,-71 73,-107 20,-37 32,-69 35,-96l-115 -753 -2 4c-3,-24 -14,-48 -31,-72 -17,-25 -36,-46 -59,-66 -22,-19 -46,-34 -72,-44 -26,-10 -49,-12 -71,-7l-983 228 -114 1322zm1172 -300l-1141 265 110 -1266 954 -221c20,-4 42,-2 66,8 23,9 45,23 66,41 20,18 37,38 52,61 15,23 23,46 24,68l116 744c-2,23 -12,51 -30,83 -18,33 -39,64 -64,94 -25,31 -52,57 -79,81 -28,23 -52,37 -74,42zm-525 -731l-39 475 235 -55 -81 -447 -115 27zm282 471l-341 79 -21 248 613 -142c15,-3 31,-13 50,-29 19,-15 37,-33 54,-53 17,-20 32,-41 44,-62 12,-22 19,-41 21,-56l-116 -744c2,-16 -2,-32 -12,-48 -9,-17 -21,-31 -36,-44 -16,-12 -32,-22 -50,-30 -17,-7 -33,-9 -48,-5l-884 205 -95 1114 402 -93 73 -867 239 -55 107 582z"/>
  <g id="_1917212399744">
   <path class="fil4 str3" d="M8625 10669l44 -496 -210 47 13 -141 651 -148 -13 142 -212 48 -44 496 -229 52zm1 -446l-46 498 307 -69 46 -498 214 -49 21 -226 -731 165 -22 227 211 -48zm-63 518l46 -498 -210 47 24 -258 762 -173 -24 259 -212 48 -46 498 -340 77zm883 -611l19 -80 1 -1 6 75 -26 6zm47 243l14 155 344 -78 -45 -579c0,-3 -1,-8 -2,-14 -3,-14 -9,-27 -20,-41 -10,-14 -21,-26 -34,-37 -12,-10 -26,-19 -41,-24 -15,-6 -28,-8 -40,-5l-351 79c-12,3 -27,11 -45,26 -18,14 -35,31 -52,50 -18,18 -33,38 -45,58 -13,20 -20,37 -21,52l-157 628 344 -78 40 -167 111 -25zm30 135l-15 -155 -135 31 -42 167 -313 71 153 -616 1 3c2,-13 9,-29 21,-46 11,-18 25,-35 40,-52 15,-16 30,-30 46,-43 15,-13 28,-20 38,-22l350 -80c11,-2 22,-1 35,4 13,5 25,11 37,21 12,9 22,19 31,31 10,12 16,24 18,37 2,5 2,11 1,17l1 -8 44 570 -311 70zm-69 -472l-26 114 61 -14 -6 -107 -29 7zm-152 480l122 -514 96 -21 10 186 -120 27 -31 146 167 -37 14 155 229 -52 -40 -521c1,-2 0,-6 -1,-12 -2,-9 -6,-17 -12,-25 -6,-8 -14,-16 -22,-22 -8,-6 -17,-11 -27,-14 -9,-3 -17,-4 -24,-2l-351 79c-8,2 -17,7 -28,16 -11,9 -22,19 -32,30 -10,12 -20,24 -28,36 -7,13 -12,24 -13,33l-141 564 232 -52zm855 -818l-44 496 370 -84 -13 142 -509 115c-8,2 -17,1 -26,-4 -10,-4 -19,-10 -28,-17 -8,-7 -15,-16 -21,-25 -5,-10 -7,-19 -6,-28l50 -544 227 -51zm-2 446l46 -498 -305 69 -54 587c-2,12 1,25 9,39 7,14 17,27 28,38 12,11 25,20 39,26 13,6 26,8 39,5l548 -124 22 -226 -372 84zm62 -518l-46 498 372 -84 -24 259 -564 127c-13,3 -27,2 -43,-5 -15,-7 -30,-17 -43,-29 -13,-13 -24,-27 -32,-42 -8,-16 -12,-30 -11,-45l56 -603 335 -76zm633 -85l-44 496 370 -83 -13 142 -509 114c-8,2 -17,1 -26,-3 -10,-4 -19,-10 -28,-17 -8,-8 -15,-16 -21,-26 -5,-9 -7,-18 -6,-27l50 -544 227 -52zm-2 446l46 -498 -305 69 -54 587c-2,13 1,26 8,40 8,14 18,26 29,38 12,11 25,20 38,26 14,6 27,7 39,5l549 -124 22 -226 -372 83zm62 -517l-46 498 372 -84 -24 259 -564 127c-13,3 -27,1 -43,-6 -15,-6 -30,-16 -43,-29 -13,-12 -24,-26 -32,-42 -8,-15 -12,-30 -11,-44l56 -604 335 -75zm1064 13l66 -15 24 -259 -650 147c-13,3 -29,12 -46,26 -18,15 -35,32 -52,51 -17,19 -31,38 -43,58 -11,20 -18,37 -19,51l-42 450c-1,15 3,29 12,45 9,15 20,29 33,41 14,13 29,22 44,29 16,7 30,9 43,6l650 -147 24 -259 -455 103 0 -7 389 -88 22 -232zm-16 -8l-20 226 -388 87 -3 42 455 -103 -22 226 -635 143c-12,3 -25,1 -39,-5 -13,-6 -26,-14 -39,-26 -12,-11 -22,-23 -29,-37 -8,-14 -10,-27 -9,-39l42 -451c2,-12 8,-27 18,-45 11,-18 23,-35 38,-52 14,-17 29,-32 44,-45 16,-13 30,-21 42,-24l634 -143 -21 226 -455 103 -1 5 388 -88zm-57 194l13 -142 -354 80 -14 142 355 -80zm-398 211l32 -354 454 -103 14 -142 -595 134c-8,2 -18,7 -29,16 -11,9 -21,19 -31,31 -10,11 -18,23 -25,35 -7,13 -11,23 -12,32l-42 451c-1,8 1,18 6,27 6,10 13,18 21,25 9,8 18,13 28,18 9,4 18,5 26,3l595 -134 13 -142 -455 103zm955 -277c0,1 1,1 1,0 0,0 0,-1 0,-2l0 6 -1 -4zm-408 -391l-70 757 342 -77 23 -256 113 -25 -16 178 341 -77 20 -206c2,-24 0,-44 -6,-61 -6,-18 -14,-33 -23,-46 11,-18 21,-36 32,-56 10,-19 15,-38 17,-57l9 -99c2,-13 -2,-28 -10,-43 -9,-16 -20,-31 -33,-43 -14,-13 -28,-23 -44,-30 -16,-7 -30,-9 -44,-6l-651 147zm-52 737l68 -724 634 -144c13,-2 26,-1 40,6 13,7 26,16 38,27 12,11 21,24 29,38 7,14 11,27 10,39l-10 99c-1,18 -7,38 -19,58 -11,21 -24,40 -38,58 11,10 21,24 29,41 8,17 10,38 8,62l-17 190 -308 69 14 -171 -4 -5 -140 31 -25 256 -309 70zm355 -568l0 5 146 -33 0 -5 -146 33zm-252 -122l-58 638 229 -52 45 -496 226 -51 -8 89 -193 43 -14 154 153 -35c12,-3 20,1 25,9 3,3 5,8 8,16 2,8 3,13 2,14l-11 129 229 -52 13 -147c3,-31 -3,-54 -18,-69 -15,-16 -30,-25 -45,-26 8,-6 17,-13 26,-23 9,-9 18,-20 26,-31 8,-12 15,-24 21,-36 6,-12 9,-23 10,-34l10 -99c1,-8 -2,-17 -7,-26 -6,-10 -12,-18 -21,-26 -8,-8 -17,-14 -27,-19 -9,-5 -18,-6 -26,-5l-595 135z"/>
   <path class="fil5" d="M8625 10669l44 -496 -210 47 13 -141 651 -148 -13 142 -212 48 -44 496 -229 52zm1 -446l-46 498 307 -69 46 -498 214 -49 21 -226 -731 165 -22 227 211 -48zm-63 518l46 -498 -210 47 24 -258 762 -173 -24 259 -212 48 -46 498 -340 77zm883 -611l19 -80 1 -1 6 75 -26 6zm47 243l14 155 344 -78 -45 -579c0,-3 -1,-8 -2,-14 -3,-14 -9,-27 -20,-41 -10,-14 -21,-26 -34,-37 -12,-10 -26,-19 -41,-24 -15,-6 -28,-8 -40,-5l-351 79c-12,3 -27,11 -45,26 -18,14 -35,31 -52,50 -18,18 -33,38 -45,58 -13,20 -20,37 -21,52l-157 628 344 -78 40 -167 111 -25zm30 135l-15 -155 -135 31 -42 167 -313 71 153 -616 1 3c2,-13 9,-29 21,-46 11,-18 25,-35 40,-52 15,-16 30,-30 46,-43 15,-13 28,-20 38,-22l350 -80c11,-2 22,-1 35,4 13,5 25,11 37,21 12,9 22,19 31,31 10,12 16,24 18,37 2,5 2,11 1,17l1 -8 44 570 -311 70zm-69 -472l-26 114 61 -14 -6 -107 -29 7zm-152 480l122 -514 96 -21 10 186 -120 27 -31 146 167 -37 14 155 229 -52 -40 -521c1,-2 0,-6 -1,-12 -2,-9 -6,-17 -12,-25 -6,-8 -14,-16 -22,-22 -8,-6 -17,-11 -27,-14 -9,-3 -17,-4 -24,-2l-351 79c-8,2 -17,7 -28,16 -11,9 -22,19 -32,30 -10,12 -20,24 -28,36 -7,13 -12,24 -13,33l-141 564 232 -52zm855 -818l-44 496 370 -84 -13 142 -509 115c-8,2 -17,1 -26,-4 -10,-4 -19,-10 -28,-17 -8,-7 -15,-16 -21,-25 -5,-10 -7,-19 -6,-28l50 -544 227 -51zm-2 446l46 -498 -305 69 -54 587c-2,12 1,25 9,39 7,14 17,27 28,38 12,11 25,20 39,26 13,6 26,8 39,5l548 -124 22 -226 -372 84zm62 -518l-46 498 372 -84 -24 259 -564 127c-13,3 -27,2 -43,-5 -15,-7 -30,-17 -43,-29 -13,-13 -24,-27 -32,-42 -8,-16 -12,-30 -11,-45l56 -603 335 -76zm633 -85l-44 496 370 -83 -13 142 -509 114c-8,2 -17,1 -26,-3 -10,-4 -19,-10 -28,-17 -8,-8 -15,-16 -21,-26 -5,-9 -7,-18 -6,-27l50 -544 227 -52zm-2 446l46 -498 -305 69 -54 587c-2,13 1,26 8,40 8,14 18,26 29,38 12,11 25,20 38,26 14,6 27,7 39,5l549 -124 22 -226 -372 83zm62 -517l-46 498 372 -84 -24 259 -564 127c-13,3 -27,1 -43,-6 -15,-6 -30,-16 -43,-29 -13,-12 -24,-26 -32,-42 -8,-15 -12,-30 -11,-44l56 -604 335 -75zm1064 13l66 -15 24 -259 -650 147c-13,3 -29,12 -46,26 -18,15 -35,32 -52,51 -17,19 -31,38 -43,58 -11,20 -18,37 -19,51l-42 450c-1,15 3,29 12,45 9,15 20,29 33,41 14,13 29,22 44,29 16,7 30,9 43,6l650 -147 24 -259 -455 103 0 -7 389 -88 22 -232zm-16 -8l-20 226 -388 87 -3 42 455 -103 -22 226 -635 143c-12,3 -25,1 -39,-5 -13,-6 -26,-14 -39,-26 -12,-11 -22,-23 -29,-37 -8,-14 -10,-27 -9,-39l42 -451c2,-12 8,-27 18,-45 11,-18 23,-35 38,-52 14,-17 29,-32 44,-45 16,-13 30,-21 42,-24l634 -143 -21 226 -455 103 -1 5 388 -88zm-57 194l13 -142 -354 80 -14 142 355 -80zm-398 211l32 -354 454 -103 14 -142 -595 134c-8,2 -18,7 -29,16 -11,9 -21,19 -31,31 -10,11 -18,23 -25,35 -7,13 -11,23 -12,32l-42 451c-1,8 1,18 6,27 6,10 13,18 21,25 9,8 18,13 28,18 9,4 18,5 26,3l595 -134 13 -142 -455 103zm955 -277c0,1 1,1 1,0 0,0 0,-1 0,-2l0 6 -1 -4zm-408 -391l-70 757 342 -77 23 -256 113 -25 -16 178 341 -77 20 -206c2,-24 0,-44 -6,-61 -6,-18 -14,-33 -23,-46 11,-18 21,-36 32,-56 10,-19 15,-38 17,-57l9 -99c2,-13 -2,-28 -10,-43 -9,-16 -20,-31 -33,-43 -14,-13 -28,-23 -44,-30 -16,-7 -30,-9 -44,-6l-651 147zm-52 737l68 -724 634 -144c13,-2 26,-1 40,6 13,7 26,16 38,27 12,11 21,24 29,38 7,14 11,27 10,39l-10 99c-1,18 -7,38 -19,58 -11,21 -24,40 -38,58 11,10 21,24 29,41 8,17 10,38 8,62l-17 190 -308 69 14 -171 -4 -5 -140 31 -25 256 -309 70zm355 -568l0 5 146 -33 0 -5 -146 33zm-252 -122l-58 638 229 -52 45 -496 226 -51 -8 89 -193 43 -14 154 153 -35c12,-3 20,1 25,9 3,3 5,8 8,16 2,8 3,13 2,14l-11 129 229 -52 13 -147c3,-31 -3,-54 -18,-69 -15,-16 -30,-25 -45,-26 8,-6 17,-13 26,-23 9,-9 18,-20 26,-31 8,-12 15,-24 21,-36 6,-12 9,-23 10,-34l10 -99c1,-8 -2,-17 -7,-26 -6,-10 -12,-18 -21,-26 -8,-8 -17,-14 -27,-19 -9,-5 -18,-6 -26,-5l-595 135z"/>
  </g>
 </g>
</svg>
